<svg width="19" height="23" viewBox="0 0 19 23" fill="none" xmlns="http://www.w3.org/2000/svg">
<path fill-rule="evenodd" clip-rule="evenodd" d="M9.49935 2.33751C8.52247 2.33751 7.5856 2.72557 6.89484 3.41633C6.20408 4.10709 5.81602 5.04396 5.81602 6.02084C5.81602 6.99772 6.20408 7.93459 6.89484 8.62535C7.5856 9.3161 8.52247 9.70417 9.49935 9.70417C10.4762 9.70417 11.4131 9.3161 12.1039 8.62535C12.7946 7.93459 13.1827 6.99772 13.1827 6.02084C13.1827 5.04396 12.7946 4.10709 12.1039 3.41633C11.4131 2.72557 10.4762 2.33751 9.49935 2.33751ZM5.90489 2.42638C6.8582 1.47307 8.15116 0.937508 9.49935 0.937508C10.8475 0.937508 12.1405 1.47307 13.0938 2.42638C14.0471 3.37969 14.5827 4.67265 14.5827 6.02084C14.5827 7.36902 14.0471 8.66199 13.0938 9.6153C12.1405 10.5686 10.8475 11.1042 9.49935 11.1042C8.15116 11.1042 6.8582 10.5686 5.90489 9.6153C4.95158 8.66199 4.41602 7.36902 4.41602 6.02084C4.41602 4.67265 4.95158 3.37969 5.90489 2.42638Z" fill="black"/>
<path fill-rule="evenodd" clip-rule="evenodd" d="M7.30771 14.3917C5.74956 14.3917 4.25524 15.0106 3.15346 16.1124C2.05169 17.2142 1.43271 18.7085 1.43271 20.2667V21.3625C1.43271 21.7491 1.11931 22.0625 0.732715 22.0625C0.346115 22.0625 0.0327148 21.7491 0.0327148 21.3625V20.2667C0.0327148 18.3372 0.799186 16.4868 2.16351 15.1225C3.52784 13.7581 5.37826 12.9917 7.30771 12.9917H11.691C13.6205 12.9917 15.4709 13.7581 16.8352 15.1225C18.1996 16.4868 18.966 18.3372 18.966 20.2667V21.3625C18.966 21.7491 18.6526 22.0625 18.266 22.0625C17.8794 22.0625 17.566 21.7491 17.566 21.3625V20.2667C17.566 18.7085 16.9471 17.2142 15.8453 16.1124C14.7435 15.0106 13.2492 14.3917 11.691 14.3917H7.30771Z" fill="black"/>
</svg>
