<svg width="24" height="21" viewBox="0 0 24 21" fill="none" xmlns="http://www.w3.org/2000/svg">
<path fill-rule="evenodd" clip-rule="evenodd" d="M5.81756 0.25H17.5156L23.194 10.3333L17.5156 20.4167H5.81756L0.13916 10.3333L5.81756 0.25ZM6.69434 1.75L1.86066 10.3333L6.69434 18.9167H16.6388L21.4725 10.3333L16.6388 1.75H6.69434Z" fill="#F5F6F6"/>
<path d="M8.81333 12.2333L8.76667 12.8H6L6.04667 12.2333H7.08L7.34667 8.88L6.32667 9.47333L6.38 8.84L7.70667 8.05333H8.10667L7.76667 12.2333H8.81333Z" fill="#F5F6F6"/>
<path d="M11.2774 12.8533C10.753 12.8533 10.353 12.6756 10.0774 12.32C9.80629 11.9644 9.67073 11.4467 9.67073 10.7667C9.67073 10.1844 9.74184 9.68667 9.88406 9.27333C10.0263 8.86 10.2307 8.54444 10.4974 8.32667C10.7685 8.10889 11.093 8 11.4707 8C11.9952 8 12.3952 8.17778 12.6707 8.53333C12.9463 8.88889 13.0841 9.40667 13.0841 10.0867C13.0841 10.9622 12.9263 11.6422 12.6107 12.1267C12.2952 12.6111 11.8507 12.8533 11.2774 12.8533ZM11.2974 12.2933C11.6574 12.2933 11.9307 12.0978 12.1174 11.7067C12.3041 11.3156 12.3974 10.7422 12.3974 9.98667C12.3974 9.49778 12.3196 9.13778 12.1641 8.90667C12.013 8.67556 11.7796 8.56 11.4641 8.56C11.1041 8.56 10.8285 8.75778 10.6374 9.15333C10.4507 9.54444 10.3574 10.1156 10.3574 10.8667C10.3574 11.3556 10.433 11.7156 10.5841 11.9467C10.7396 12.1778 10.9774 12.2933 11.2974 12.2933Z" fill="#F5F6F6"/>
<path d="M15.2748 12.8533C14.7503 12.8533 14.3503 12.6756 14.0748 12.32C13.8037 11.9644 13.6681 11.4467 13.6681 10.7667C13.6681 10.1844 13.7392 9.68667 13.8815 9.27333C14.0237 8.86 14.2281 8.54444 14.4948 8.32667C14.7659 8.10889 15.0903 8 15.4681 8C15.9926 8 16.3926 8.17778 16.6681 8.53333C16.9437 8.88889 17.0815 9.40667 17.0815 10.0867C17.0815 10.9622 16.9237 11.6422 16.6081 12.1267C16.2926 12.6111 15.8481 12.8533 15.2748 12.8533ZM15.2948 12.2933C15.6548 12.2933 15.9281 12.0978 16.1148 11.7067C16.3015 11.3156 16.3948 10.7422 16.3948 9.98667C16.3948 9.49778 16.317 9.13778 16.1615 8.90667C16.0103 8.67556 15.777 8.56 15.4615 8.56C15.1015 8.56 14.8259 8.75778 14.6348 9.15333C14.4481 9.54444 14.3548 10.1156 14.3548 10.8667C14.3548 11.3556 14.4303 11.7156 14.5815 11.9467C14.737 12.1778 14.9748 12.2933 15.2948 12.2933Z" fill="#F5F6F6"/>
<path fill-rule="evenodd" clip-rule="evenodd" d="M9.03034 12.0331L8.95074 12.9998H5.78271L5.86232 12.0331H6.89514L7.11687 9.24477L6.095 9.8392L6.18922 8.72033L7.65169 7.85314H8.32346L7.98346 12.0331H9.03034ZM7.76667 12.2333H8.81333L8.76667 12.8H6L6.04667 12.2333H7.08L7.34667 8.88L6.32667 9.47333L6.38 8.84L7.70667 8.05333H8.10667L7.76667 12.2333ZM9.91822 12.4411C9.60988 12.0367 9.47059 11.4687 9.47059 10.7665C9.47059 10.169 9.54344 9.64799 9.69481 9.20807C9.84591 8.76893 10.0684 8.41845 10.3708 8.17157L10.372 8.17054C10.6818 7.92171 11.0515 7.7998 11.4706 7.7998C12.0453 7.7998 12.5087 7.99772 12.8287 8.41062C13.1422 8.81515 13.2839 9.38371 13.2839 10.0865C13.2839 10.9822 13.1232 11.706 12.7782 12.2356C12.4261 12.7762 11.9189 13.0531 11.2773 13.0531C10.7025 13.0531 10.2392 12.8552 9.91918 12.4423L9.91822 12.4411ZM11.9965 9.01592C11.8881 8.85015 11.7233 8.7598 11.4639 8.7598C11.323 8.7598 11.2055 8.79767 11.1039 8.87062C11.0001 8.94508 10.9027 9.06363 10.8175 9.23975C10.65 9.59101 10.5573 10.1267 10.5573 10.8665C10.5573 11.3417 10.632 11.6538 10.7506 11.8359C10.863 12.0022 11.0329 12.0931 11.2973 12.0931C11.4387 12.0931 11.5556 12.0555 11.6559 11.9838C11.7582 11.9106 11.8539 11.794 11.9368 11.6203C12.1044 11.2692 12.1973 10.7312 12.1973 9.98647C12.1973 9.51096 12.1201 9.19961 11.998 9.01815L11.9965 9.01592ZM10.5841 11.9467C10.433 11.7156 10.3574 11.3556 10.3574 10.8667C10.3574 10.1156 10.4507 9.54444 10.6374 9.15333C10.8285 8.75778 11.1041 8.56 11.4641 8.56C11.7796 8.56 12.013 8.67556 12.1641 8.90667C12.3196 9.13778 12.3974 9.49778 12.3974 9.98667C12.3974 10.7422 12.3041 11.3156 12.1174 11.7067C11.9307 12.0978 11.6574 12.2933 11.2974 12.2933C10.9774 12.2933 10.7396 12.1778 10.5841 11.9467ZM13.9156 12.4411C13.6073 12.0367 13.468 11.4687 13.468 10.7665C13.468 10.169 13.5408 9.64799 13.6922 9.20807C13.8433 8.76893 14.0658 8.41845 14.3681 8.17157L14.3694 8.17054C14.6792 7.92171 15.0489 7.7998 15.468 7.7998C16.0427 7.7998 16.5061 7.99772 16.8261 8.41062C17.1396 8.81515 17.2813 9.38371 17.2813 10.0865C17.2813 10.9822 17.1205 11.706 16.7756 12.2356C16.4235 12.7762 15.9163 13.0531 15.2747 13.0531C14.6999 13.0531 14.2366 12.8552 13.9166 12.4423L13.9156 12.4411ZM15.9939 9.01592C15.8855 8.85015 15.7207 8.7598 15.4613 8.7598C15.3204 8.7598 15.2029 8.79767 15.1013 8.87062C14.9975 8.94508 14.9001 9.06363 14.8149 9.23975C14.6474 9.59101 14.5547 10.1267 14.5547 10.8665C14.5547 11.3417 14.6294 11.6537 14.748 11.8359C14.8604 12.0022 15.0303 12.0931 15.2947 12.0931C15.4361 12.0931 15.553 12.0555 15.6533 11.9838C15.7556 11.9106 15.8513 11.794 15.9342 11.6203C16.1018 11.2692 16.1947 10.7312 16.1947 9.98647C16.1947 9.51096 16.1175 9.19961 15.9954 9.01815L15.9939 9.01592ZM14.5815 11.9467C14.4303 11.7156 14.3548 11.3556 14.3548 10.8667C14.3548 10.1156 14.4481 9.54444 14.6348 9.15333C14.8259 8.75778 15.1015 8.56 15.4615 8.56C15.777 8.56 16.0103 8.67556 16.1615 8.90667C16.317 9.13778 16.3948 9.49778 16.3948 9.98667C16.3948 10.7422 16.3015 11.3156 16.1148 11.7067C15.9281 12.0978 15.6548 12.2933 15.2948 12.2933C14.9748 12.2933 14.737 12.1778 14.5815 11.9467ZM10.0774 12.32C9.80629 11.9644 9.67073 11.4467 9.67073 10.7667C9.67073 10.1844 9.74184 9.68667 9.88406 9.27333C10.0263 8.86 10.2307 8.54444 10.4974 8.32667C10.7685 8.10889 11.093 8 11.4707 8C11.9952 8 12.3952 8.17778 12.6707 8.53333C12.9463 8.88889 13.0841 9.40667 13.0841 10.0867C13.0841 10.9622 12.9263 11.6422 12.6107 12.1267C12.2952 12.6111 11.8507 12.8533 11.2774 12.8533C10.753 12.8533 10.353 12.6756 10.0774 12.32ZM13.6681 10.7667C13.6681 11.4467 13.8037 11.9644 14.0748 12.32C14.3503 12.6756 14.7503 12.8533 15.2748 12.8533C15.8481 12.8533 16.2926 12.6111 16.6081 12.1267C16.9237 11.6422 17.0815 10.9622 17.0815 10.0867C17.0815 9.40667 16.9437 8.88889 16.6681 8.53333C16.3926 8.17778 15.9926 8 15.4681 8C15.0903 8 14.7659 8.10889 14.4948 8.32667C14.2281 8.54444 14.0237 8.86 13.8815 9.27333C13.7392 9.68667 13.6681 10.1844 13.6681 10.7667Z" fill="#F5F6F6"/>
</svg>
