<svg width="21" height="25" viewBox="0 0 21 25" fill="none" xmlns="http://www.w3.org/2000/svg">
<path fill-rule="evenodd" clip-rule="evenodd" d="M15.1822 5.89819C14.9869 5.64091 14.8429 5.35216 14.7574 5.05881C14.2199 3.21393 12.5153 1.86797 10.4997 1.86797C8.48408 1.86797 6.77945 3.21393 6.24195 5.05881C6.15648 5.35216 6.01244 5.64091 5.8172 5.89819H15.1822ZM2.07686 7.19819V23.7H18.9228V7.19819H2.07686ZM4.99384 4.69517C4.85332 5.17747 4.43815 5.5541 3.9358 5.5541H1.77686C1.22457 5.5541 0.776855 6.00181 0.776855 6.5541V24C0.776855 24.5523 1.22457 25 1.77685 25H19.2228C19.775 25 20.2228 24.5523 20.2228 24V6.5541C20.2228 6.00181 19.775 5.5541 19.2228 5.5541H17.0636C16.5612 5.5541 16.1461 5.17747 16.0055 4.69517C15.3108 2.31046 13.1087 0.56797 10.4997 0.56797C7.89067 0.56797 5.68863 2.31046 4.99384 4.69517Z" fill="black"/>
</svg>
