<svg width="12" height="12" viewBox="0 0 12 12" fill="none" xmlns="http://www.w3.org/2000/svg">
<path fill-rule="evenodd" clip-rule="evenodd" d="M0.292987 11.7071C-0.0975375 11.3166 -0.0975374 10.6834 0.292987 10.2929L4.58588 6L0.292988 1.70711C-0.0975366 1.31658 -0.0975366 0.683417 0.292988 0.292893C0.683512 -0.097632 1.31668 -0.097632 1.7072 0.292893L7.41431 6L1.7072 11.7071C1.31668 12.0976 0.683511 12.0976 0.292987 11.7071Z" fill="black"/>
<path fill-rule="evenodd" clip-rule="evenodd" d="M11.707 0.292893C12.0975 0.683417 12.0975 1.31658 11.707 1.70711L7.41412 6L11.707 10.2929C12.0975 10.6834 12.0975 11.3166 11.707 11.7071C11.3165 12.0976 10.6833 12.0976 10.2928 11.7071L4.58569 6L10.2928 0.292893C10.6833 -0.0976311 11.3165 -0.0976311 11.707 0.292893Z" fill="black"/>
</svg>
