<svg width="21" height="21" viewBox="0 0 21 21" fill="none" xmlns="http://www.w3.org/2000/svg">
<path fill-rule="evenodd" clip-rule="evenodd" d="M10.4531 19C15.1475 19 18.9531 15.1944 18.9531 10.5C18.9531 5.80558 15.1475 2 10.4531 2C5.7587 2 1.95312 5.80558 1.95312 10.5C1.95312 15.1944 5.7587 19 10.4531 19ZM10.4531 20.5C15.976 20.5 20.4531 16.0228 20.4531 10.5C20.4531 4.97715 15.976 0.5 10.4531 0.5C4.93028 0.5 0.453125 4.97715 0.453125 10.5C0.453125 16.0228 4.93028 20.5 10.4531 20.5Z" fill="#F5F6F6"/>
<path fill-rule="evenodd" clip-rule="evenodd" d="M14.65 9.03039L9.78635 13.8941L6.58936 10.6971L7.65002 9.63639L9.78635 11.7727L13.5894 7.96973L14.65 9.03039Z" fill="#F5F6F6"/>
</svg>
