<svg width="21" height="19" viewBox="0 0 21 19" fill="none" xmlns="http://www.w3.org/2000/svg">
<path fill-rule="evenodd" clip-rule="evenodd" d="M16.2611 17.1149C16.4726 17.1712 16.6963 17.2271 16.9323 17.2818C16.8672 17.0633 16.8076 16.8432 16.7535 16.622C16.6036 16.009 16.4957 15.3862 16.4306 14.758C16.4129 14.5732 16.4362 14.3869 16.4987 14.2121C16.5612 14.0374 16.6615 13.8787 16.7923 13.7472C18.1297 12.4045 18.9075 10.6858 18.9075 8.83333C18.9075 4.80533 15.1209 1.2619 10.0839 1.2619C5.04696 1.2619 1.2604 4.80533 1.2604 8.83333C1.2604 12.8626 5.04696 16.4048 10.0839 16.4048C10.9729 16.4062 11.8582 16.2908 12.7171 16.0615C13.0168 15.9814 13.3354 16.0146 13.6121 16.1549C14.0344 16.369 14.8962 16.7516 16.2611 17.1149ZM18.3125 18.8377C18.5646 18.8781 18.7562 18.6156 18.6566 18.3809C18.5447 18.1167 18.4421 17.8486 18.3491 17.5771L18.3453 17.5645C18.0327 16.6559 17.7781 15.611 17.6848 14.6381C19.2314 13.086 20.168 11.0543 20.168 8.83333C20.168 3.95481 15.6528 0 10.0839 0C4.51503 0 -9.91821e-05 3.95481 -9.91821e-05 8.83333C-9.91821e-05 13.7119 4.51503 17.6667 10.0839 17.6667C11.0827 17.668 12.0773 17.5382 13.0423 17.2805C13.6978 17.6124 15.1083 18.2169 17.4138 18.6749C17.7124 18.7342 18.012 18.7885 18.3125 18.8377Z" fill="white"/>
</svg>
