<svg width="21" height="21" viewBox="0 0 21 21" fill="none" xmlns="http://www.w3.org/2000/svg">
<path fill-rule="evenodd" clip-rule="evenodd" d="M9.16888 2C5.20866 2 2 5.20687 2 9.1606C2 13.1143 5.20866 16.3212 9.16888 16.3212C13.1291 16.3212 16.3378 13.1143 16.3378 9.1606C16.3378 5.20687 13.1291 2 9.16888 2ZM0 9.1606C0 4.10038 4.10601 0 9.16888 0C14.2318 0 18.3378 4.10038 18.3378 9.1606C18.3378 11.3351 17.5795 13.3324 16.3129 14.9032L20.7067 19.2925C21.0975 19.6829 21.0978 20.316 20.7075 20.7067C20.3171 21.0975 19.684 21.0978 19.2933 20.7075L14.896 16.3147C13.3267 17.5703 11.3354 18.3212 9.16888 18.3212C4.10601 18.3212 0 14.2208 0 9.1606Z" fill="black"/>
</svg>
