<svg width="21" height="21" viewBox="0 0 21 21" fill="none" xmlns="http://www.w3.org/2000/svg">
<path fill-rule="evenodd" clip-rule="evenodd" d="M0.25 0.25H20.4167V15.1157L10.3333 20.5175L0.25 15.1157V0.25ZM1.75 1.75V14.2176L10.3333 18.8158L18.9167 14.2176V1.75H1.75Z" fill="#F5F6F6"/>
<path fill-rule="evenodd" clip-rule="evenodd" d="M9.09509 7.91667C9.11171 7.79848 9.13699 7.6761 9.17419 7.55704C9.25021 7.3138 9.36405 7.1213 9.51956 6.99035C9.66397 6.86874 9.90285 6.75 10.3333 6.75C10.7638 6.75 11.0027 6.86874 11.1471 6.99035C11.3026 7.1213 11.4165 7.3138 11.4925 7.55704C11.5297 7.6761 11.555 7.79848 11.5716 7.91667H9.09509ZM13.0811 7.91667C13.0591 7.67506 13.0135 7.39553 12.9242 7.10963C12.7919 6.6862 12.5516 6.21203 12.1133 5.84298C11.664 5.46459 11.0695 5.25 10.3333 5.25C9.59715 5.25 9.00269 5.46459 8.55336 5.84298C8.11511 6.21203 7.87479 6.6862 7.74247 7.10963C7.65313 7.39553 7.60757 7.67506 7.58555 7.91667H6.25V13.75H14.4167V7.91667H13.0811ZM12.9167 9.41667H7.75V12.25H12.9167V9.41667Z" fill="#F5F6F6"/>
</svg>
