<svg width="23" height="21" viewBox="0 0 23 21" fill="none" xmlns="http://www.w3.org/2000/svg">
<path fill-rule="evenodd" clip-rule="evenodd" d="M21.2047 5.27257L21.2032 5.26702C21.1059 4.88612 20.9557 4.52074 20.757 4.18154L20.7449 4.16095L20.7335 4.13995C20.5476 3.7961 20.3097 3.48295 20.0284 3.2115L20.0203 3.20364L20.0122 3.19565C19.5841 2.76893 19.0773 2.42929 18.5198 2.19552C17.4014 1.73781 16.1481 1.73743 15.0294 2.19437C14.5209 2.41051 14.0517 2.70888 13.6405 3.07737L13.5808 3.14909L11.5011 5.22872L9.4215 3.14909L9.36173 3.07737C8.95053 2.70889 8.48132 2.41051 7.97286 2.19437C6.85423 1.73743 5.60088 1.73781 4.48247 2.1955C3.92502 2.42927 3.41819 2.76892 2.99002 3.19565L2.98407 3.20158L2.97805 3.20744C2.40233 3.76763 1.99478 4.47769 1.80146 5.25737L1.7996 5.26491L1.79764 5.27242C1.69302 5.67522 1.64321 6.0903 1.64956 6.50643L1.64973 6.51711V6.5278C1.64973 6.91749 1.69863 7.30461 1.79576 7.6795C1.8998 8.06233 2.04877 8.43149 2.23956 8.7793C2.44596 9.13242 2.69751 9.45716 2.98787 9.7453L2.99169 9.74908L11.5011 18.2585L20.019 9.74066C20.3042 9.46026 20.548 9.1394 20.7391 8.79293L20.7477 8.77737L20.7567 8.76203C21.1517 8.08724 21.3575 7.3185 21.3526 6.53664L21.3525 6.52145L21.3527 6.50627C21.3591 6.09025 21.3093 5.67526 21.2047 5.27257ZM11.5011 20.2384L2.00173 10.739C1.6205 10.3607 1.29083 9.93377 1.02125 9.46924C0.771637 9.01735 0.577357 8.53705 0.442607 8.0387C0.31402 7.54525 0.249726 7.03733 0.249726 6.5278C0.24145 5.98578 0.306329 5.44513 0.442607 4.92046C0.698772 3.88729 1.23883 2.94637 2.00173 2.20405C2.55952 1.64812 3.22007 1.20594 3.94662 0.902099C5.40905 0.3019 7.04904 0.3019 8.51147 0.902099C9.19818 1.19277 9.8291 1.60069 10.376 2.10761L10.4564 2.20405L11.5011 3.24882L12.5459 2.20405L12.6263 2.10761C13.1732 1.60069 13.8041 1.19277 14.4908 0.902099C15.9532 0.3019 17.5932 0.3019 19.0556 0.902099C19.7822 1.20594 20.4427 1.64812 21.0005 2.20405C21.3853 2.5753 21.7106 3.00359 21.9649 3.47385C22.2298 3.9259 22.43 4.41284 22.5597 4.92046C22.696 5.44512 22.7609 5.98578 22.7525 6.5278C22.7591 7.56124 22.487 8.57733 21.9649 9.46924C21.7078 9.93537 21.3815 10.3645 21.0005 10.739L11.5011 20.2384Z" fill="black"/>
</svg>
