<svg width="33" height="24" viewBox="0 0 33 24" fill="none" xmlns="http://www.w3.org/2000/svg">
<g clip-path="url(#clip0_2139_422)">
<path fill-rule="evenodd" clip-rule="evenodd" d="M0 0H45.6V1.84688H0V0ZM0 3.69375H45.6V5.54062H0V3.69375ZM0 7.38281H45.6V9.23438H0V7.38281ZM0 11.0766H45.6V12.9234H0V11.0766ZM0 14.7703H45.6V16.6172H0V14.7703ZM0 18.4594H45.6V20.3063H0V18.4594ZM0 22.1531H45.6V24H0V22.1531Z" fill="#BD3D44"/>
<path fill-rule="evenodd" clip-rule="evenodd" d="M0 1.84668H45.6V3.69355H0V1.84668ZM0 5.54043H45.6V7.38262H0V5.54043ZM0 9.22949H45.6V11.0764H0V9.22949ZM0 12.9232H45.6V14.7701H0V12.9232ZM0 16.617H45.6V18.4639H0V16.617ZM0 20.3061H45.6V22.1529H0V20.3061Z" fill="white"/>
<path fill-rule="evenodd" clip-rule="evenodd" d="M0 0H18.2391V12.9234H0V0Z" fill="#192F5D"/>
<path fill-rule="evenodd" clip-rule="evenodd" d="M1.51855 0.553223L1.6873 1.06416H2.22168L1.79043 1.37822L1.95449 1.89385L1.51855 1.5751L1.0873 1.88916L1.25137 1.37822L0.81543 1.06416H1.35918L1.51855 0.553223ZM4.56074 0.553223L4.72481 1.06416H5.26387L4.82793 1.37822L4.99199 1.89385L4.56074 1.5751L4.1248 1.88916L4.28887 1.37822L3.85762 1.06416H4.39199L4.56074 0.553223ZM7.59824 0.553223L7.76699 1.06416H8.29668L7.86543 1.37822L8.02949 1.89385L7.59356 1.5751L7.16231 1.88916L7.32637 1.37822L6.89043 1.06416H7.42949L7.59824 0.553223ZM10.6404 0.553223L10.8045 1.06416H11.3436L10.9076 1.37822L11.0764 1.89385L10.6404 1.5751L10.2045 1.88916L10.3732 1.37822L9.93731 1.06416H10.4717L10.6404 0.553223ZM13.6779 0.553223L13.8467 1.06416H14.3811L13.9498 1.37822L14.1139 1.89385L13.6779 1.5751L13.2467 1.88916L13.4107 1.37822L12.9795 1.06416H13.5139L13.6779 0.553223ZM16.7201 0.553223L16.8842 1.06416H17.4232L16.9873 1.37822L17.1561 1.89385L16.7201 1.5751L16.2842 1.88916L16.4529 1.37822L16.017 1.06416H16.5561L16.7201 0.553223ZM3.04199 1.84697L3.20605 2.35791H3.74512L3.30918 2.67197L3.46855 3.18291L3.04668 2.86885L2.61074 3.18291L2.76543 2.67197L2.34355 2.35791H2.87793L3.04199 1.84697ZM6.07949 1.84697L6.24824 2.35791H6.78262L6.34668 2.67197L6.51543 3.18291L6.07949 2.86885L5.64356 3.18291L5.81231 2.67197L5.37637 2.35791H5.91543L6.07949 1.84697ZM9.12168 1.84697L9.28574 2.35791H9.82481L9.38887 2.67197L9.55293 3.18291L9.12168 2.86885L8.68574 3.18291L8.84981 2.67197L8.41856 2.35791H8.95293L9.12168 1.84697ZM12.1592 1.84697L12.3279 2.35791H12.8623L12.4264 2.67197L12.5951 3.18291L12.1592 2.86885L11.7279 3.18291L11.892 2.67197L11.4561 2.35791H11.9998L12.1592 1.84697ZM15.2014 1.84697L15.3654 2.35791H15.9045L15.4686 2.67197L15.6326 3.18291L15.2014 2.86885L14.7654 3.18291L14.9295 2.67197L14.4982 2.35791H15.0326L15.2014 1.84697ZM1.51855 3.13603L1.6873 3.65635H2.22168L1.79043 3.97041L1.95449 4.48135L1.51855 4.1626L1.0873 4.48135L1.25137 3.96572L0.81543 3.65166H1.35918L1.51855 3.13603ZM4.56074 3.13603L4.72481 3.65166H5.26387L4.82793 3.96572L4.99199 4.47666L4.56074 4.15791L4.1248 4.47666L4.28887 3.96103L3.85762 3.64697H4.39199L4.56074 3.13603ZM7.59824 3.13603L7.76699 3.65166H8.29668L7.86543 3.96572L8.02949 4.47666L7.59356 4.15791L7.16231 4.47666L7.32637 3.96103L6.89043 3.64697H7.42949L7.59824 3.13603ZM10.6404 3.13603L10.8045 3.65166H11.3436L10.9076 3.96572L11.0764 4.47666L10.6404 4.15791L10.2045 4.47666L10.3732 3.96103L9.93731 3.64697H10.4717L10.6404 3.13603ZM13.6779 3.13603L13.8467 3.65166H14.3811L13.9498 3.96572L14.1139 4.47666L13.6779 4.15791L13.2467 4.47666L13.4107 3.96103L12.9795 3.64697H13.5139L13.6779 3.13603ZM16.7201 3.13603L16.8842 3.65166H17.4232L16.9873 3.96572L17.1561 4.47666L16.7201 4.15791L16.2842 4.47666L16.4529 3.96103L16.017 3.64697H16.5561L16.7201 3.13603ZM3.04199 4.42978L3.20605 4.94072H3.74512L3.30918 5.25478L3.47324 5.77041L3.04199 5.45166L2.60605 5.76572L2.77012 5.25478L2.33887 4.94072H2.87324L3.04199 4.42978ZM6.07949 4.42978L6.24824 4.94072H6.78262L6.34668 5.25478L6.51543 5.77041L6.07949 5.45166L5.64356 5.76572L5.81231 5.25478L5.37637 4.94072H5.91543L6.07949 4.42978ZM9.12168 4.42978L9.28574 4.94072H9.82481L9.38887 5.25478L9.55293 5.77041L9.12168 5.45166L8.68574 5.76572L8.84981 5.25478L8.41856 4.94072H8.95293L9.12168 4.42978ZM12.1592 4.42978L12.3279 4.94072H12.8623L12.4311 5.25478L12.5951 5.77041L12.1592 5.45166L11.7279 5.76572L11.892 5.25478L11.4561 4.94072H11.9998L12.1592 4.42978ZM15.2014 4.42978L15.3654 4.94072H15.9045L15.4686 5.25478L15.6326 5.77041L15.2014 5.45166L14.7654 5.76572L14.9295 5.25478L14.4982 4.94072H15.0326L15.2014 4.42978ZM1.51855 5.72353L1.6873 6.23447H2.22168L1.79043 6.54853L1.95449 7.06416L1.51855 6.74541L1.0873 7.05947L1.25137 6.54853L0.81543 6.23447H1.35918L1.51855 5.72353ZM4.56074 5.72353L4.72481 6.23447H5.26387L4.82793 6.54853L4.99199 7.05947L4.56074 6.74541L4.1248 7.05947L4.28887 6.54853L3.85762 6.23447H4.39199L4.56074 5.72353ZM7.59824 5.72353L7.76699 6.23447H8.29668L7.86543 6.54853L8.02949 7.06416L7.59356 6.74541L7.16231 7.05947L7.32637 6.54853L6.89043 6.23447H7.42949L7.59824 5.72353ZM10.6404 5.72353L10.8045 6.23447H11.3436L10.9076 6.54853L11.0764 7.06416L10.6404 6.74541L10.2045 7.05947L10.3732 6.54853L9.93731 6.23447H10.4717L10.6404 5.72353ZM13.6779 5.72353L13.8467 6.23447H14.3811L13.9498 6.54853L14.1139 7.06416L13.6779 6.74541L13.2467 7.05947L13.4107 6.54853L12.9795 6.23447H13.5139L13.6779 5.72353ZM16.7201 5.72353L16.8842 6.23447H17.4232L16.9873 6.54853L17.1561 7.06416L16.7201 6.74541L16.2842 7.05947L16.4529 6.54853L16.017 6.23447H16.5561L16.7201 5.72353ZM3.04199 7.01728L3.20605 7.52822H3.74512L3.30918 7.84228L3.47324 8.35322L3.04199 8.03447L2.60605 8.35322L2.77012 7.83759L2.33887 7.52353H2.87324L3.04199 7.01728ZM6.07949 7.01728L6.24824 7.52822H6.78262L6.34668 7.84228L6.51543 8.35322L6.07949 8.03447L5.64356 8.35322L5.81231 7.83759L5.37637 7.52353H5.91543L6.07949 7.01728ZM9.12168 7.01728L9.28574 7.52822H9.82481L9.38887 7.84228L9.55293 8.35322L9.12168 8.03447L8.68574 8.35322L8.84981 7.83759L8.41856 7.52353H8.95293L9.12168 7.01728ZM12.1592 7.01728L12.3279 7.52822H12.8623L12.4311 7.84228L12.5951 8.35322L12.1592 8.03447L11.7279 8.35322L11.892 7.83759L11.4561 7.52353H11.9998L12.1592 7.01728ZM15.2014 7.01728L15.3654 7.52822H15.9045L15.4686 7.84228L15.6326 8.35322L15.2014 8.03447L14.7654 8.35322L14.9295 7.83759L14.4982 7.52353H15.0326L15.2014 7.01728ZM1.51855 8.30634L1.6873 8.82197H2.22168L1.79043 9.13603L1.95449 9.64228L1.51855 9.32822L1.0873 9.64228L1.25137 9.13134L0.81543 8.81728H1.35918L1.51855 8.30634ZM4.56074 8.30634L4.72481 8.82197H5.26387L4.82793 9.13603L4.99668 9.64228L4.56074 9.32822L4.1248 9.64228L4.29355 9.13134L3.85762 8.81728H4.39199L4.56074 8.30634ZM7.59824 8.30634L7.76699 8.82197H8.29668L7.86543 9.13603L8.02949 9.64228L7.59356 9.32822L7.16231 9.64228L7.32637 9.13134L6.89043 8.81728H7.42949L7.59824 8.30634ZM10.6404 8.30634L10.8045 8.82197H11.3436L10.9076 9.13603L11.0764 9.64228L10.6404 9.32822L10.2045 9.64228L10.3732 9.13134L9.93731 8.81728H10.4717L10.6404 8.30634ZM13.6779 8.30634L13.8467 8.82197H14.3811L13.9498 9.13603L14.1139 9.64228L13.6779 9.32822L13.2467 9.64228L13.4107 9.13134L12.9795 8.81728H13.5139L13.6779 8.30634ZM16.7201 8.30634L16.8842 8.82197H17.4232L16.9873 9.13603L17.1561 9.64228L16.7201 9.32822L16.2842 9.64228L16.4529 9.13134L16.017 8.81728H16.5561L16.7201 8.30634ZM3.04199 9.60009L3.20605 10.111H3.74512L3.30918 10.4251L3.47324 10.9407L3.04199 10.622L2.60605 10.936L2.77012 10.4251L2.33887 10.111H2.87324L3.04199 9.60009ZM6.07949 9.60009L6.24824 10.111H6.78262L6.34668 10.4251L6.51543 10.9407L6.07949 10.622L5.64356 10.936L5.81231 10.4251L5.37637 10.111H5.91543L6.07949 9.60009ZM9.12168 9.60009L9.28574 10.111H9.82481L9.38887 10.4251L9.55293 10.9407L9.12168 10.622L8.68574 10.936L8.84981 10.4251L8.41856 10.111H8.95293L9.12168 9.60009ZM12.1592 9.60009L12.3279 10.111H12.8623L12.4311 10.4251L12.5951 10.9407L12.1592 10.622L11.7279 10.936L11.892 10.4251L11.4561 10.111H11.9998L12.1592 9.60009ZM15.2014 9.60009L15.3654 10.111H15.9045L15.4686 10.4251L15.6326 10.9407L15.2014 10.622L14.7654 10.936L14.9295 10.4251L14.4982 10.111H15.0326L15.2014 9.60009ZM1.51855 10.8938L1.6873 11.4048H2.22168L1.79043 11.7188L1.95449 12.2298L1.51855 11.9157L1.0873 12.2298L1.25137 11.7142L0.81543 11.4001H1.35918L1.51855 10.8938ZM4.56074 10.8938L4.72481 11.4048H5.26387L4.82793 11.7188L4.99668 12.2298L4.56074 11.9157L4.1248 12.2298L4.29355 11.7142L3.85762 11.4001H4.39199L4.56074 10.8938ZM7.59824 10.8938L7.76699 11.4048H8.29668L7.87481 11.7188L8.03887 12.2298L7.60293 11.9157L7.17168 12.2298L7.33574 11.7142L6.89981 11.4001H7.43887L7.59824 10.8938ZM10.6404 10.8938L10.8045 11.4048H11.3436L10.9076 11.7188L11.0764 12.2298L10.6404 11.9157L10.2045 12.2298L10.3732 11.7142L9.93731 11.4001H10.4717L10.6404 10.8938ZM13.6779 10.8938L13.8467 11.4048H14.3811L13.9498 11.7188L14.1139 12.2298L13.6779 11.9157L13.2467 12.2298L13.4107 11.7142L12.9795 11.4001H13.5139L13.6779 10.8938ZM16.7201 10.8938L16.8842 11.4048H17.4232L16.9873 11.7188L17.1561 12.2298L16.7201 11.9157L16.2842 12.2298L16.4529 11.7142L16.017 11.4001H16.5561L16.7201 10.8938Z" fill="white"/>
</g>
<defs>
<clipPath id="clip0_2139_422">
<rect width="33" height="24" fill="white"/>
</clipPath>
</defs>
</svg>
