<svg width="56" height="35" viewBox="0 0 56 35" fill="none" xmlns="http://www.w3.org/2000/svg">
<path d="M8.75001 15.6251C9.11551 16.2544 9.29825 16.8618 9.29825 17.4472C9.29825 17.5789 9.28363 17.696 9.25439 17.7984C9.23977 17.9155 9.21784 18.0326 9.18861 18.1497C8.94007 18.1204 8.67691 18.0984 8.39913 18.0838C8.13597 18.0692 7.85819 18.0618 7.5658 18.0618C7.21492 18.0618 6.85673 18.0692 6.49123 18.0838C6.14036 18.1131 5.74562 18.1497 5.30702 18.1936C4.86843 18.2375 4.37866 18.296 3.83772 18.3692C3.29679 18.4423 2.66813 18.5375 1.95176 18.6546C1.6155 18.5375 1.27924 18.3033 0.942983 17.9521C0.606726 17.6155 0.292398 17.2057 0 16.7228C0.146199 16.4008 0.328948 16.0056 0.548246 15.5373C0.767545 15.0544 1.02339 14.4763 1.31579 13.8031C1.60819 13.1153 1.92983 12.3177 2.2807 11.4103C2.6462 10.4883 3.03363 9.42727 3.44299 8.22721C3.70614 7.43693 3.93275 6.74177 4.12281 6.14174C4.31287 5.54171 4.481 4.96363 4.6272 4.40751C4.78802 3.83675 4.94152 3.24404 5.08772 2.62937C5.23392 2.01471 5.39474 1.30492 5.57018 0.5C6.15498 0.617079 6.65936 0.836602 7.08334 1.15857C7.52194 1.4659 7.9386 1.91226 8.33334 2.49766C8.21638 2.68791 8.06287 2.99525 7.87281 3.41966C7.68276 3.84407 7.45615 4.36361 7.19299 4.97827C6.94445 5.5783 6.66667 6.26614 6.35966 7.04179C6.05264 7.8028 5.731 8.62235 5.39474 9.50044C5.0731 10.3639 4.75878 11.1761 4.45176 11.9371C4.14474 12.6982 3.86696 13.386 3.61842 14.0007C3.38451 14.6153 3.19445 15.1422 3.04825 15.5812C2.90205 16.0203 2.82895 16.3496 2.82895 16.5691C3.06287 16.5545 3.27486 16.5398 3.46492 16.5252C3.65497 16.5105 3.85234 16.4886 4.05702 16.4593C4.2617 16.4154 4.481 16.3715 4.71492 16.3276C4.96346 16.2691 5.25585 16.1959 5.59211 16.1081C5.88451 16.0349 6.15498 15.9764 6.40351 15.9325C6.65205 15.8739 6.89328 15.83 7.1272 15.8008C7.37574 15.7569 7.62428 15.7276 7.87281 15.7129C8.13597 15.6837 8.42837 15.6544 8.75001 15.6251Z" fill="#522455"/>
<path d="M15.6096 16.3935C15.3318 16.1593 15.1418 15.8666 15.0394 15.5154C14.9517 15.1641 14.9078 14.8641 14.9078 14.6153C14.9078 14.308 14.9444 14.0446 15.0175 13.825C14.959 13.825 14.8274 13.9421 14.6228 14.1763C14.4181 14.4104 14.1915 14.6885 13.9429 15.0105C13.709 15.3324 13.4751 15.6471 13.2412 15.9544C13.0073 16.2618 12.8318 16.4886 12.7149 16.6349C12.5248 16.8398 12.342 17.0008 12.1666 17.1179C12.0058 17.235 11.8742 17.3008 11.7719 17.3155C11.538 17.3008 11.2894 17.2496 11.0263 17.1618C10.7777 17.0886 10.5365 16.9789 10.3026 16.8325C10.0833 16.6862 9.88591 16.5105 9.71047 16.3057C9.54965 16.1008 9.44 15.8666 9.38152 15.6032C9.38152 15.1934 9.38883 14.8568 9.40345 14.5934C9.43269 14.33 9.48386 14.0446 9.55696 13.7372C9.68854 13.1811 9.8786 12.5518 10.1271 11.8493C10.3903 11.1469 10.69 10.459 11.0263 9.78582C11.3625 9.09799 11.7353 8.46137 12.1447 7.87597C12.5687 7.27594 13.0146 6.80763 13.4824 6.47103C13.614 6.47103 13.7675 6.48566 13.9429 6.51493C14.1184 6.52957 14.2938 6.56615 14.4692 6.62469C14.6593 6.68323 14.8347 6.75641 14.9956 6.84422C15.171 6.91739 15.3172 7.01983 15.4342 7.15155C15.3026 7.2979 14.9663 7.78816 14.4254 8.62235C13.8991 9.45654 13.307 10.6566 12.6491 12.2225C12.576 12.3835 12.4882 12.6177 12.3859 12.925C12.2836 13.2323 12.1812 13.5543 12.0789 13.8909C11.9766 14.2275 11.8888 14.5568 11.8157 14.8788C11.7573 15.2007 11.728 15.4568 11.728 15.6471C11.728 15.7642 11.7426 15.852 11.7719 15.9105C11.8157 15.9691 11.8523 16.013 11.8815 16.0422C12.1008 15.9544 12.3786 15.7129 12.7149 15.3178C13.0511 14.9227 13.519 14.3153 14.1184 13.4958C14.2646 13.2909 14.4327 13.0567 14.6228 12.7933C14.8274 12.5299 15.0321 12.2518 15.2368 11.9591C15.4415 11.6518 15.6315 11.3371 15.807 11.0152C15.997 10.6932 16.1505 10.3712 16.2675 10.0493C16.326 9.87363 16.3991 9.66875 16.4868 9.43459C16.5891 9.18579 16.7061 8.92968 16.8377 8.66626C16.9839 8.40283 17.1447 8.1394 17.3201 7.87597C17.5102 7.59791 17.7295 7.3418 17.978 7.10764C18.1681 7.10764 18.3728 7.1296 18.5921 7.1735C18.8114 7.2174 19.016 7.27594 19.2061 7.34912C19.4108 7.40766 19.5862 7.48083 19.7324 7.56864C19.8786 7.64182 19.9883 7.72231 20.0614 7.81012C19.7982 8.45405 19.5058 9.09067 19.1842 9.71997C18.8625 10.3493 18.5628 10.9712 18.285 11.5859C18.0073 12.1859 17.7733 12.786 17.5833 13.386C17.3932 13.986 17.2982 14.5714 17.2982 15.1422C17.2982 15.4495 17.3201 15.7203 17.364 15.9544C17.4225 16.1739 17.4809 16.3642 17.5394 16.5252C17.5979 16.6715 17.6491 16.7959 17.6929 16.8984C17.7514 17.0008 17.7806 17.0886 17.7806 17.1618C17.7806 17.1764 17.766 17.1984 17.7368 17.2277C17.7222 17.2423 17.7076 17.2496 17.6929 17.2496C17.5906 17.2496 17.459 17.2277 17.2982 17.1838C17.1374 17.1398 16.9546 17.074 16.7499 16.9862C16.5599 16.913 16.3625 16.8252 16.1578 16.7228C15.9678 16.6203 15.785 16.5105 15.6096 16.3935Z" fill="#522455"/>
<path d="M26.2048 16.7447C26.044 16.9935 25.7881 17.1911 25.4372 17.3374C25.101 17.4984 24.7794 17.5935 24.4723 17.6228C24.2238 17.3301 23.946 16.935 23.639 16.4374C23.332 15.9252 23.0396 15.3324 22.7618 14.6592C22.0162 15.3324 21.2706 15.9471 20.525 16.5032C19.7793 17.0447 19.0849 17.5057 18.4416 17.8862C18.2808 17.857 18.1492 17.7691 18.0469 17.6228C17.9446 17.4764 17.8861 17.2862 17.8715 17.052C18.1638 16.8911 18.5074 16.6788 18.9022 16.4154C19.3115 16.152 19.7209 15.8666 20.1302 15.5593C20.5542 15.2373 20.9562 14.908 21.3364 14.5714C21.7311 14.2202 22.0674 13.8836 22.3451 13.5616C22.0966 12.9762 21.8627 12.3762 21.6434 11.7615C21.4387 11.1322 21.256 10.5322 21.0951 9.96144C20.9489 9.37605 20.832 8.84919 20.7443 8.38088C20.6565 7.89793 20.6127 7.5101 20.6127 7.2174C20.6127 7.01252 20.6346 6.8808 20.6785 6.82226C20.737 6.74909 20.8612 6.7125 21.0513 6.7125C21.1975 6.7125 21.3729 6.72714 21.5776 6.75641C21.7969 6.78568 22.0162 6.82226 22.2355 6.86617C22.4548 6.91007 22.6741 6.96129 22.8934 7.01983C23.1127 7.06374 23.3027 7.11496 23.4636 7.1735C23.4343 7.33448 23.4197 7.47352 23.4197 7.59059C23.4197 7.70767 23.4197 7.87597 23.4197 8.0955C23.4197 8.66626 23.4636 9.25165 23.5513 9.85168C23.6536 10.4371 23.8144 11.0737 24.0337 11.7615C24.6332 11.0737 25.1887 10.3127 25.7004 9.47849C26.2121 8.62967 26.7311 7.61986 27.2574 6.44907C27.6229 6.52225 27.9373 6.63201 28.2004 6.77836C28.4636 6.91007 28.6317 7.05642 28.7048 7.2174C28.544 7.89061 28.0908 8.73943 27.3451 9.76387C26.5995 10.7883 25.6492 11.8786 24.4943 13.0348C24.6989 13.5909 24.9475 14.1836 25.2399 14.8129C25.5323 15.4276 25.8539 16.0715 26.2048 16.7447Z" fill="#522455"/>
<path d="M33.4833 16.3935C33.2055 16.1593 33.0154 15.8666 32.9131 15.5154C32.8254 15.1641 32.7815 14.8641 32.7815 14.6153C32.7815 14.308 32.8181 14.0446 32.8912 13.825C32.8327 13.825 32.7011 13.9421 32.4964 14.1763C32.2918 14.4104 32.0651 14.6885 31.8166 15.0105C31.5827 15.3324 31.3488 15.6471 31.1149 15.9544C30.8809 16.2618 30.7055 16.4886 30.5885 16.6349C30.3985 16.8398 30.2157 17.0008 30.0403 17.1179C29.8795 17.235 29.7479 17.3008 29.6456 17.3155C29.4116 17.3008 29.1631 17.2496 28.8999 17.1618C28.6514 17.0886 28.4102 16.9789 28.1763 16.8325C27.957 16.6862 27.7596 16.5105 27.5841 16.3057C27.4233 16.1008 27.3137 15.8666 27.2552 15.6032C27.2552 15.1934 27.2625 14.8568 27.2771 14.5934C27.3064 14.33 27.3575 14.0446 27.4306 13.7372C27.5622 13.1811 27.7523 12.5518 28.0008 11.8493C28.264 11.1469 28.5637 10.459 28.8999 9.78582C29.2362 9.09799 29.609 8.46137 30.0184 7.87597C30.4423 7.27594 30.8882 6.80763 31.3561 6.47103C31.4877 6.47103 31.6412 6.48566 31.8166 6.51493C31.992 6.52957 32.1675 6.56615 32.3429 6.62469C32.533 6.68323 32.7084 6.75641 32.8692 6.84422C33.0447 6.91739 33.1909 7.01983 33.3078 7.15155C33.1763 7.2979 32.84 7.78816 32.2991 8.62235C31.7727 9.45654 31.1806 10.6566 30.5227 12.2225C30.4496 12.3835 30.3619 12.6177 30.2596 12.925C30.1572 13.2323 30.0549 13.5543 29.9526 13.8909C29.8502 14.2275 29.7625 14.5568 29.6894 14.8788C29.6309 15.2007 29.6017 15.4568 29.6017 15.6471C29.6017 15.7642 29.6163 15.852 29.6456 15.9105C29.6894 15.9691 29.726 16.013 29.7552 16.0422C29.9745 15.9544 30.2523 15.7129 30.5885 15.3178C30.9248 14.9227 31.3926 14.3153 31.992 13.4958C32.1382 13.2909 32.3064 13.0567 32.4964 12.7933C32.7011 12.5299 32.9058 12.2518 33.1105 11.9591C33.3151 11.6518 33.5052 11.3371 33.6806 11.0152C33.8707 10.6932 34.0242 10.3712 34.1412 10.0493C34.1996 9.87363 34.2728 9.66875 34.3605 9.43459C34.4628 9.18579 34.5798 8.92968 34.7113 8.66626C34.8575 8.40283 35.0184 8.1394 35.1938 7.87597C35.3839 7.59791 35.6032 7.3418 35.8517 7.10764C36.0418 7.10764 36.2464 7.1296 36.4657 7.1735C36.685 7.2174 36.8897 7.27594 37.0798 7.34912C37.2845 7.40766 37.4599 7.48083 37.6061 7.56864C37.7523 7.64182 37.8619 7.72231 37.935 7.81012C37.6719 8.45405 37.3795 9.09067 37.0578 9.71997C36.7362 10.3493 36.4365 10.9712 36.1587 11.5859C35.8809 12.1859 35.647 12.786 35.457 13.386C35.2669 13.986 35.1719 14.5714 35.1719 15.1422C35.1719 15.4495 35.1938 15.7203 35.2377 15.9544C35.2961 16.1739 35.3546 16.3642 35.4131 16.5252C35.4716 16.6715 35.5228 16.7959 35.5666 16.8984C35.6251 17.0008 35.6543 17.0886 35.6543 17.1618C35.6543 17.1764 35.6397 17.1984 35.6105 17.2277C35.5958 17.2423 35.5812 17.2496 35.5666 17.2496C35.4643 17.2496 35.3327 17.2277 35.1719 17.1838C35.0111 17.1398 34.8283 17.074 34.6236 16.9862C34.4336 16.913 34.2362 16.8252 34.0315 16.7228C33.8415 16.6203 33.6587 16.5105 33.4833 16.3935Z" fill="#522455"/>
<path d="M36.732 16.4374C36.8051 16.013 36.9293 15.4568 37.1048 14.769C37.2948 14.0665 37.5141 13.3275 37.7627 12.5518C38.0112 11.7615 38.2744 10.9712 38.5522 10.181C38.8299 9.39068 39.1004 8.68089 39.3636 8.05159C39.5536 7.59791 39.7217 7.24667 39.8679 6.99788C40.0141 6.73445 40.175 6.51493 40.3504 6.33931C40.5551 6.36858 40.7671 6.4198 40.9864 6.49298C41.2057 6.56615 41.4177 6.65396 41.6223 6.75641C41.827 6.85885 42.0098 6.96861 42.1706 7.08569C42.3314 7.18814 42.4557 7.29058 42.5434 7.39302C42.1486 7.86134 41.7978 8.39551 41.4907 8.99554C41.1983 9.59557 40.8986 10.3639 40.5916 11.3005C41.3811 10.5981 42.0755 9.92486 42.675 9.28092C43.289 8.63699 43.8592 7.91988 44.3855 7.1296C44.4732 7.05642 44.6267 7.01983 44.846 7.01983C45.0507 7.01983 45.2481 7.05642 45.4381 7.1296C45.6282 7.18813 45.7598 7.27594 45.8329 7.39302C45.5697 8.0955 45.4381 8.79065 45.4381 9.47849C45.4381 10.1224 45.5332 10.6054 45.7232 10.9273C45.7086 11.0152 45.6063 11.1835 45.4162 11.4322C45.2408 11.681 45.0434 11.9152 44.8241 12.1347C44.4294 11.9298 44.0785 11.6518 43.7715 11.3005C43.4644 10.9347 43.2378 10.5395 43.0916 10.1151C42.4045 10.5981 41.8197 11.0737 41.3372 11.542C40.8548 11.9957 40.4381 12.5079 40.0872 13.0787C39.751 13.6348 39.4586 14.2787 39.21 15.0105C38.9761 15.7422 38.7495 16.613 38.5302 17.6228C38.3986 17.6082 38.2378 17.5569 38.0478 17.4691C37.8723 17.396 37.6896 17.3008 37.4995 17.1838C37.3241 17.0667 37.1633 16.9423 37.0171 16.8106C36.8709 16.6788 36.7758 16.5545 36.732 16.4374Z" fill="#522455"/>
<path d="M53.2522 13.4738C52.9159 14.5422 52.5797 15.5154 52.2434 16.3935C51.9071 17.2716 51.549 18.0765 51.1688 18.8082C50.7887 19.5546 50.3794 20.2351 49.9408 20.8498C49.5022 21.4791 49.0197 22.0718 48.4934 22.6279C47.8209 23.3304 47.1264 23.8646 46.4101 24.2304C45.6937 24.6109 44.9773 24.8012 44.2609 24.8012C43.8954 24.8012 43.5299 24.7573 43.1644 24.6695C42.8136 24.5963 42.4846 24.4865 42.1776 24.3402C41.856 24.2085 41.5782 24.0475 41.3443 23.8573C41.0957 23.6816 40.9203 23.4914 40.818 23.2865C40.818 23.1109 40.9203 22.9572 41.125 22.8255C41.3004 22.9865 41.4466 23.1109 41.5636 23.1987C41.6805 23.2865 41.7975 23.3597 41.9144 23.4182C42.0168 23.4767 42.1337 23.5133 42.2653 23.528C42.3823 23.5426 42.5212 23.5499 42.682 23.5499C43.5153 23.5499 44.3267 23.3011 45.1162 22.8035C45.9203 22.3206 46.6732 21.6254 47.375 20.7181C48.0914 19.8253 48.7419 18.735 49.3267 17.4472C49.9115 16.1739 50.4086 14.747 50.818 13.1665C50.6279 13.4592 50.394 13.8177 50.1162 14.2421C49.8384 14.6666 49.5314 15.091 49.1952 15.5154C48.8589 15.9252 48.508 16.2983 48.1425 16.6349C47.7916 16.9715 47.4481 17.1984 47.1118 17.3155C46.8779 17.3008 46.6294 17.2496 46.3662 17.1618C46.1177 17.0886 45.8764 16.9789 45.6425 16.8325C45.4232 16.6862 45.2258 16.5105 45.0504 16.3057C44.875 16.1008 44.758 15.8666 44.6995 15.6032C44.6995 15.1788 44.7142 14.8422 44.7434 14.5934C44.7726 14.33 44.8238 14.0446 44.8969 13.7372C45.0285 13.1811 45.2185 12.5518 45.4671 11.8493C45.7302 11.1469 46.0299 10.459 46.3662 9.78582C46.7171 9.09799 47.0972 8.46137 47.5066 7.87597C47.9305 7.27594 48.3691 6.80763 48.8223 6.47103C48.9393 6.47103 49.0855 6.48566 49.2609 6.51493C49.4364 6.52957 49.6191 6.56615 49.8092 6.62469C49.9992 6.68323 50.182 6.75641 50.3574 6.84422C50.5329 6.91739 50.6864 7.01983 50.818 7.15155C50.6571 7.2979 50.3063 7.78816 49.7653 8.62235C49.2244 9.45654 48.625 10.6566 47.9671 12.2225C47.894 12.3835 47.8063 12.6177 47.7039 12.925C47.6016 13.2323 47.4992 13.5543 47.3969 13.8909C47.3092 14.2275 47.2288 14.5568 47.1557 14.8788C47.0826 15.2007 47.046 15.4568 47.046 15.6471C47.046 15.7642 47.0606 15.852 47.0899 15.9105C47.1337 15.9691 47.1703 16.013 47.1995 16.0422C47.4627 15.9983 47.8136 15.7861 48.2522 15.4056C48.6908 15.0105 49.1878 14.4031 49.7434 13.5836C50.0943 13.0567 50.4159 12.5372 50.7083 12.025C51.0007 11.4981 51.2858 10.9712 51.5636 10.4444C51.856 9.91754 52.1557 9.37605 52.4627 8.81992C52.7697 8.2638 53.0987 7.69304 53.4495 7.10764C53.6396 7.10764 53.8443 7.1296 54.0636 7.1735C54.2829 7.2174 54.4949 7.27594 54.6995 7.34912C54.9042 7.40766 55.0797 7.48083 55.2259 7.56864C55.3867 7.64182 55.5036 7.72231 55.5767 7.81012C55.1235 8.77602 54.6995 9.71997 54.3048 10.642C53.9101 11.564 53.5592 12.5079 53.2522 13.4738Z" fill="#522455"/>
<path d="M22.5254 24.2651C22.5254 24.8704 22.3714 25.4482 22.0635 25.9984C21.7666 26.5487 21.3597 27.0329 20.8428 27.4511C20.3369 27.8583 19.7376 28.1829 19.0447 28.425C18.3629 28.6672 17.6371 28.7882 16.8673 28.7882C16.5923 28.7882 16.3724 28.7552 16.2074 28.6892C16.0535 28.6121 15.8775 28.4691 15.6796 28.26C15.1297 29.4595 14.6788 30.5655 14.3269 31.578C13.986 32.5795 13.7165 33.5534 13.5186 34.4998C13.1007 34.4008 12.7598 34.2247 12.4958 33.9716C12.2319 33.7295 11.99 33.4213 11.77 33.0472C11.88 32.8381 12.012 32.5629 12.1659 32.2218C12.3199 31.8806 12.5068 31.4624 12.7268 30.9672C12.9467 30.461 13.1997 29.8612 13.4856 29.1679C13.7825 28.4636 14.1289 27.6437 14.5248 26.7083C14.7008 26.2791 14.8548 25.9049 14.9867 25.5857C15.1187 25.2666 15.2342 24.9695 15.3331 24.6943C15.4321 24.4082 15.5201 24.1276 15.5971 23.8524C15.6851 23.5773 15.773 23.2747 15.861 22.9445C15.3441 23.1096 14.8658 23.3022 14.4259 23.5223C13.997 23.7424 13.6396 23.9735 13.3536 24.2156C13.2547 24.1496 13.1502 24.0505 13.0402 23.9185C12.9412 23.7864 12.8478 23.6433 12.7598 23.4893C12.6718 23.3242 12.5948 23.1591 12.5288 22.994C12.4628 22.829 12.4244 22.6804 12.4134 22.5483C12.7323 22.3282 13.1282 22.1246 13.6011 21.9376C14.074 21.7505 14.5798 21.5909 15.1187 21.4588C15.6576 21.3158 16.2129 21.2057 16.7848 21.1287C17.3676 21.0517 17.923 21.0131 18.4509 21.0131C19.0777 21.0131 19.6441 21.0957 20.15 21.2608C20.6558 21.4148 21.0847 21.6349 21.4366 21.9211C21.7886 22.2072 22.058 22.5483 22.2449 22.9445C22.4319 23.3407 22.5254 23.7809 22.5254 24.2651ZM19.5891 22.2842C19.1712 22.2842 18.7423 22.3172 18.3024 22.3833L18.5004 22.6804C18.3904 22.8235 18.2529 23.0381 18.088 23.3242C17.923 23.6103 17.7416 23.957 17.5436 24.3642C17.3457 24.7604 17.1257 25.2061 16.8838 25.7013C16.6528 26.1965 16.4054 26.7193 16.1414 27.2695C16.9992 27.2695 17.78 27.1925 18.4839 27.0384C19.1877 26.8733 19.7871 26.6532 20.2819 26.3781C20.7878 26.092 21.1782 25.7618 21.4531 25.3876C21.7391 25.0135 21.882 24.6118 21.882 24.1826C21.882 23.6103 21.6896 23.1536 21.3047 22.8125C20.9198 22.4603 20.3479 22.2842 19.5891 22.2842Z" fill="#522455"/>
<path d="M20.9682 32.1062C20.9682 31.622 21.0837 30.9452 21.3146 30.0758C21.5455 29.1954 21.87 28.1719 22.2879 27.0054C22.9697 25.1455 23.6075 23.5993 24.2014 22.3668C24.8062 21.1232 25.3946 20.1547 25.9665 19.4614C26.0984 19.4834 26.2579 19.5385 26.4448 19.6265C26.6428 19.7145 26.8352 19.8136 27.0222 19.9236C27.2092 20.0227 27.3741 20.1272 27.5171 20.2373C27.671 20.3473 27.77 20.4354 27.814 20.5014C26.9562 21.5139 26.2029 22.6034 25.5541 23.7699C24.9052 24.9364 24.3114 26.2736 23.7725 27.7812C23.3106 29.0798 22.9587 30.2519 22.7168 31.2974C22.4748 32.3318 22.3538 33.1957 22.3538 33.8891C22.3538 34.0761 22.3538 34.1917 22.3538 34.2357C22.3538 34.2797 22.3593 34.3238 22.3703 34.3678C22.2164 34.3458 22.0844 34.3072 21.9744 34.2522C21.8645 34.1972 21.793 34.1312 21.76 34.0541C21.738 33.9991 21.6775 33.9166 21.5785 33.8065C21.4796 33.7075 21.3916 33.6304 21.3146 33.5754C21.2156 33.5094 21.1331 33.3388 21.0672 33.0637C21.0012 32.7775 20.9682 32.4584 20.9682 32.1062Z" fill="#522455"/>
<path d="M28.5452 32.7996C28.3363 32.6235 28.1933 32.4034 28.1163 32.1392C28.0504 31.8751 28.0174 31.6495 28.0174 31.4624C28.0174 31.2313 28.0449 31.0332 28.0999 30.8682C28.0559 30.8682 27.9569 30.9562 27.8029 31.1323C27.649 31.3084 27.4785 31.5175 27.2916 31.7596C27.1156 32.0017 26.9396 32.2383 26.7637 32.4694C26.5877 32.7005 26.4558 32.8711 26.3678 32.9811C26.2248 33.1352 26.0873 33.2563 25.9554 33.3443C25.8344 33.4323 25.7354 33.4819 25.6585 33.4929C25.4825 33.4819 25.2955 33.4433 25.0976 33.3773C24.9106 33.3223 24.7292 33.2398 24.5532 33.1297C24.3883 33.0197 24.2398 32.8876 24.1078 32.7335C23.9869 32.5795 23.9044 32.4034 23.8604 32.2053C23.8604 31.8971 23.8659 31.644 23.8769 31.4459C23.8989 31.2478 23.9374 31.0332 23.9924 30.8021C24.0913 30.3839 24.2343 29.9107 24.4213 29.3825C24.6192 28.8542 24.8447 28.337 25.0976 27.8308C25.3505 27.3135 25.631 26.8348 25.9389 26.3946C26.2578 25.9434 26.5932 25.5912 26.9451 25.3381C27.0441 25.3381 27.1596 25.3491 27.2916 25.3711C27.4235 25.3821 27.5555 25.4097 27.6875 25.4537C27.8304 25.4977 27.9624 25.5527 28.0834 25.6188C28.2153 25.6738 28.3253 25.7508 28.4133 25.8499C28.3143 25.9599 28.0614 26.3286 27.6545 26.9559C27.2586 27.5832 26.8132 28.4856 26.3183 29.6631C26.2633 29.7842 26.1973 29.9602 26.1203 30.1914C26.0434 30.4225 25.9664 30.6646 25.8894 30.9177C25.8124 31.1708 25.7464 31.4184 25.6914 31.6605C25.6475 31.9026 25.6255 32.0952 25.6255 32.2383C25.6255 32.3263 25.6365 32.3924 25.6585 32.4364C25.6914 32.4804 25.7189 32.5134 25.7409 32.5354C25.9059 32.4694 26.1148 32.2878 26.3678 31.9907C26.6207 31.6935 26.9726 31.2368 27.4235 30.6206C27.5335 30.4665 27.66 30.2904 27.8029 30.0923C27.9569 29.8942 28.1108 29.6851 28.2648 29.465C28.4188 29.2339 28.5617 28.9973 28.6937 28.7552C28.8367 28.5131 28.9521 28.271 29.0401 28.0289C29.0841 27.8968 29.1391 27.7427 29.2051 27.5666C29.2821 27.3796 29.37 27.187 29.469 26.9889C29.579 26.7908 29.7 26.5927 29.8319 26.3946C29.9749 26.1855 30.1399 25.9929 30.3268 25.8168C30.4698 25.8168 30.6237 25.8334 30.7887 25.8664C30.9537 25.8994 31.1076 25.9434 31.2506 25.9984C31.4045 26.0424 31.5365 26.0975 31.6465 26.1635C31.7565 26.2185 31.8389 26.2791 31.8939 26.3451C31.696 26.8293 31.476 27.308 31.2341 27.7812C30.9921 28.2545 30.7667 28.7222 30.5578 29.1844C30.3488 29.6356 30.1728 30.0868 30.0299 30.538C29.8869 30.9892 29.8154 31.4294 29.8154 31.8586C29.8154 32.0897 29.8319 32.2933 29.8649 32.4694C29.9089 32.6345 29.9529 32.7775 29.9969 32.8986C30.0409 33.0086 30.0794 33.1022 30.1124 33.1792C30.1563 33.2563 30.1783 33.3223 30.1783 33.3773C30.1783 33.3883 30.1673 33.4048 30.1454 33.4268C30.1344 33.4378 30.1234 33.4434 30.1124 33.4434C30.0354 33.4434 29.9364 33.4268 29.8154 33.3938C29.6945 33.3608 29.557 33.3113 29.403 33.2453C29.2601 33.1902 29.1116 33.1242 28.9576 33.0472C28.8147 32.9701 28.6772 32.8876 28.5452 32.7996Z" fill="#522455"/>
<path d="M40.8551 28.0949C40.6791 28.1059 40.4647 28.2214 40.2118 28.4416C39.9588 28.6506 39.6839 28.9258 39.387 29.2669C39.101 29.5971 38.7986 29.9658 38.4797 30.3729C38.1718 30.7801 37.8693 31.1873 37.5724 31.5945C37.2865 31.9907 37.017 32.3649 36.7641 32.717C36.5112 33.0692 36.2967 33.3498 36.1208 33.5589C35.8788 33.4599 35.6699 33.3168 35.4939 33.1297C35.3179 32.9316 35.1915 32.6895 35.1145 32.4034C35.1695 32.0622 35.2465 31.7101 35.3454 31.3469C35.4444 30.9727 35.5709 30.5875 35.7249 30.1914C35.8898 29.7952 36.0878 29.3825 36.3187 28.9533C36.5606 28.5131 36.8521 28.0509 37.193 27.5666C37.028 27.5777 36.8026 27.6987 36.5167 27.9298C36.2307 28.1499 35.9228 28.4416 35.5929 28.8047C35.263 29.1569 34.922 29.5586 34.5701 30.0098C34.2182 30.45 33.8883 30.8847 33.5804 31.3139C33.1735 31.8861 32.8326 32.3869 32.5576 32.8161C32.2937 33.2453 32.1012 33.4984 31.9803 33.5754C31.6943 33.3663 31.4964 33.1407 31.3864 32.8986C31.2764 32.6565 31.194 32.3869 31.139 32.0897C31.15 31.8256 31.1885 31.4955 31.2544 31.0993C31.3314 30.7031 31.4359 30.2959 31.5679 29.8777C31.8208 29.0743 32.1452 28.2765 32.5411 27.4841C32.948 26.6917 33.3384 25.9654 33.7123 25.3051C34.0203 25.3711 34.2952 25.4757 34.5371 25.6188C34.7901 25.7618 35.054 25.9709 35.3289 26.246C35.219 26.5872 35.0485 26.9504 34.8176 27.3355C34.5866 27.7097 34.3447 28.1059 34.0917 28.5241C33.8388 28.9423 33.6079 29.3715 33.3989 29.8117C33.19 30.2519 33.0525 30.6976 32.9865 31.1488C33.2944 30.7086 33.6574 30.2024 34.0753 29.6301C34.5042 29.0578 34.9385 28.5186 35.3784 28.0124C35.8293 27.5061 36.2747 27.0769 36.7146 26.7248C37.1545 26.3726 37.5504 26.1965 37.9023 26.1965C38.0343 26.1965 38.1772 26.2185 38.3312 26.2626C38.4852 26.3066 38.6281 26.3616 38.7601 26.4276C38.8921 26.4937 39.002 26.5597 39.09 26.6257C39.178 26.6807 39.2275 26.7248 39.2385 26.7578C39.1835 26.9779 39.0515 27.2805 38.8426 27.6657C38.6446 28.0399 38.4302 28.436 38.1992 28.8542C37.9683 29.2724 37.7539 29.6796 37.5559 30.0758C37.358 30.461 37.2425 30.7691 37.2095 31.0002C37.7484 30.2629 38.2542 29.5971 38.7271 29.0028C39.2 28.3975 39.6454 27.8803 40.0633 27.4511C40.4812 27.0219 40.8661 26.6917 41.218 26.4606C41.5809 26.2295 41.9218 26.114 42.2408 26.114C42.4607 26.114 42.6641 26.1745 42.8511 26.2956C43.0491 26.4056 43.1865 26.5707 43.2635 26.7908C43.1645 27.1209 42.9996 27.5171 42.7686 27.9793C42.5487 28.4416 42.3232 28.9313 42.0923 29.4485C41.8613 29.9547 41.6524 30.4555 41.4654 30.9507C41.2895 31.4459 41.2015 31.8916 41.2015 32.2878C41.2015 32.5189 41.2345 32.673 41.3005 32.75C41.3665 32.8161 41.4599 32.8491 41.5809 32.8491C41.7129 32.8491 41.8339 32.8271 41.9438 32.783C42.0648 32.728 42.1528 32.7005 42.2078 32.7005C42.2737 32.7445 42.3122 32.7996 42.3232 32.8656C42.3342 32.9316 42.3397 32.9921 42.3397 33.0472C42.1198 33.2232 41.8943 33.3663 41.6634 33.4764C41.4325 33.5974 41.174 33.6579 40.8881 33.6579C40.6242 33.6579 40.4042 33.6139 40.2282 33.5259C40.0633 33.4378 39.9258 33.3168 39.8158 33.1627C39.7059 33.0087 39.6289 32.8326 39.5849 32.6345C39.5409 32.4364 39.5189 32.2218 39.5189 31.9907C39.5189 31.6165 39.5684 31.2478 39.6674 30.8847C39.7664 30.5105 39.8818 30.1583 40.0138 29.8282C40.1568 29.487 40.3052 29.1734 40.4592 28.8873C40.6132 28.5901 40.7451 28.326 40.8551 28.0949Z" fill="#522455"/>
</svg>
