<svg width="284" height="39" viewBox="0 0 284 39" fill="none" xmlns="http://www.w3.org/2000/svg">
<path d="M3.62119 38.0736C4.5315 37.887 5.44181 37.6737 6.56019 37.4338C6.06603 37.0872 5.75392 36.8473 5.44181 36.6341C-1.6586 31.6224 -0.982372 20.8526 6.66423 16.8006C7.4705 16.3741 7.80862 15.9209 7.7566 14.9878C7.67857 13.7616 7.78261 12.5087 7.73059 11.2557C7.67857 10.1894 8.12073 9.52298 8.95301 8.96317C9.60323 8.53664 10.1754 7.97682 10.7736 7.49698C9.13507 5.68425 9.16108 4.53796 10.9297 3.25838C10.7476 2.9918 10.5656 2.72522 10.3835 2.4853C10.5916 1.4723 11.97 1.4723 13.2445 2.4853C13.0624 2.69856 12.8803 2.93848 12.6983 3.15175C14.3108 4.85785 14.779 4.85785 16.3135 3.1784C18.2642 1.04577 23.9601 -0.153831 26.535 1.07243C28.2256 1.89883 29.5 3.12509 29.5 5.2044C29.5 6.93717 28.2256 8.64327 26.2229 9.2564C22.6857 10.3494 19.4086 9.46967 16.5476 7.25706C14.5189 5.68425 14.6229 5.5243 12.8023 7.49698C13.2185 7.87019 13.5826 8.43001 14.0768 8.58996C15.6113 9.14977 15.9494 10.2961 15.8193 11.7622C15.8193 11.8156 15.8193 11.8422 15.8193 11.8955C15.5593 14.5347 15.5593 17.0405 18.6803 18.0002C24.7144 22.8253 24.4803 32.1289 18.2122 36.6341C17.9001 36.8473 17.5879 37.0872 17.0158 37.4604C18.4462 37.7803 19.6426 38.0469 20.8391 38.3135C20.8391 38.3935 20.813 38.4734 20.813 38.5801C15.1171 38.5801 9.39516 38.5801 3.69922 38.5801C3.67321 38.3935 3.6472 38.2335 3.62119 38.0736Z" fill="#4D2952"/>
<path d="M43.2441 24.9001C42.8814 24.9001 42.5934 24.7934 42.3801 24.5801C42.1667 24.3454 42.0601 24.0254 42.0601 23.6201V6.02008C42.0601 4.82541 42.4121 3.88674 43.1161 3.20408C43.8414 2.52141 44.8441 2.18008 46.1241 2.18008H51.5641C57.6441 2.18008 60.6841 4.72941 60.6841 9.82808C60.6841 12.1747 59.9054 13.9881 58.3481 15.2681C56.8121 16.5267 54.5934 17.1561 51.6921 17.1561H44.4601V23.6201C44.4601 24.0254 44.3534 24.3454 44.1401 24.5801C43.9267 24.7934 43.6281 24.9001 43.2441 24.9001ZM51.6921 15.1401C53.7614 15.1401 55.3614 14.7347 56.4921 13.9241C57.6441 13.1134 58.2201 11.7481 58.2201 9.82808C58.2201 7.82274 57.6654 6.38274 56.5561 5.50808C55.4467 4.61208 53.8361 4.16408 51.7241 4.16408H46.1561C45.6441 4.16408 45.2281 4.33474 44.9081 4.67608C44.6094 5.01741 44.4601 5.46541 44.4601 6.02008V15.1401H51.6921Z" fill="#4D2952"/>
<path d="M71.0801 24.9001C68.3067 24.9001 66.1627 24.1854 64.6481 22.7561C63.1334 21.3267 62.3761 19.3001 62.3761 16.6761C62.3761 14.1587 63.1441 12.1854 64.6801 10.7561C66.2161 9.30541 68.3174 8.58008 70.9841 8.58008C72.6267 8.58008 74.0881 8.84674 75.3681 9.38008C76.6481 9.89208 77.6401 10.6281 78.3441 11.5881C79.0694 12.5267 79.4321 13.6041 79.4321 14.8201C79.4321 15.7161 79.1761 16.4094 78.6641 16.9001C78.1734 17.3907 77.4907 17.6361 76.6161 17.6361H64.7761C64.7761 19.2787 65.3307 20.5694 66.4401 21.5081C67.5494 22.4254 69.0961 22.8841 71.0801 22.8841C72.2961 22.8841 73.3414 22.7561 74.2161 22.5001C75.0907 22.2227 75.9121 21.7854 76.6801 21.1881C77.0854 20.8467 77.4161 20.6761 77.6721 20.6761C77.8641 20.6761 78.0454 20.7614 78.2161 20.9321C78.5147 21.1881 78.6641 21.4547 78.6641 21.7321C78.6641 21.9454 78.5361 22.1801 78.2801 22.4361C77.4054 23.2681 76.3814 23.8867 75.2081 24.2921C74.0347 24.6974 72.6587 24.9001 71.0801 24.9001ZM75.9121 15.7481C76.2961 15.7481 76.5841 15.6734 76.7761 15.5241C76.9681 15.3534 77.0641 15.0547 77.0641 14.6281C77.0641 13.8601 76.8081 13.1667 76.2961 12.5481C75.7841 11.9294 75.0587 11.4494 74.1201 11.1081C73.2027 10.7667 72.1574 10.5961 70.9841 10.5961C69.0854 10.5961 67.5814 11.0654 66.4721 12.0041C65.3841 12.9214 64.8401 14.1694 64.8401 15.7481H75.9121Z" fill="#4D2952"/>
<path d="M84.2366 24.9001C83.8739 24.9001 83.5859 24.7934 83.3726 24.5801C83.1806 24.3454 83.0846 24.0254 83.0846 23.6201V9.86008C83.0846 9.45474 83.1806 9.14541 83.3726 8.93208C83.5646 8.69741 83.8526 8.58008 84.2366 8.58008C84.5992 8.58008 84.8766 8.69741 85.0686 8.93208C85.2819 9.14541 85.3886 9.45474 85.3886 9.86008V11.7801C86.8392 9.86008 88.8446 8.90008 91.4046 8.90008H92.2046C92.6099 8.90008 92.9299 8.99608 93.1646 9.18808C93.3992 9.35874 93.5166 9.60408 93.5166 9.92408C93.5166 10.2441 93.3992 10.4894 93.1646 10.6601C92.9299 10.8307 92.6099 10.9161 92.2046 10.9161H91.3086C89.4952 10.9161 88.0552 11.4387 86.9886 12.4841C85.9432 13.5081 85.4206 14.9054 85.4206 16.6761V23.6201C85.4206 24.0041 85.3139 24.3134 85.1006 24.5481C84.9086 24.7827 84.6206 24.9001 84.2366 24.9001Z" fill="#4D2952"/>
<path d="M106.677 2.37208C106.89 2.56408 106.997 2.79874 106.997 3.07608C106.997 3.35341 106.879 3.60941 106.645 3.84408C106.431 4.01474 106.229 4.10008 106.037 4.10008C105.759 4.10008 105.386 3.96141 104.917 3.68408C104.149 3.23608 103.327 3.01208 102.453 3.01208C100.874 3.01208 100.085 3.86541 100.085 5.57208V8.90008H104.629C105.461 8.90008 105.877 9.23074 105.877 9.89208C105.877 10.1907 105.77 10.4254 105.557 10.5961C105.343 10.7667 105.034 10.8521 104.629 10.8521H100.085V23.6201C100.085 24.0254 99.9779 24.3454 99.7646 24.5801C99.5726 24.7934 99.2952 24.9001 98.9326 24.9001C98.5699 24.9001 98.2819 24.7934 98.0686 24.5801C97.8552 24.3454 97.7486 24.0254 97.7486 23.6201V10.8521H96.2126C95.8072 10.8521 95.4872 10.7667 95.2526 10.5961C95.0392 10.4254 94.9326 10.1907 94.9326 9.89208C94.9326 9.23074 95.3592 8.90008 96.2126 8.90008H97.7486V5.70008C97.7486 4.27074 98.1646 3.12941 98.9966 2.27608C99.8499 1.40141 100.97 0.964077 102.357 0.964077C103.231 0.964077 104.042 1.09208 104.789 1.34808C105.535 1.58274 106.165 1.92408 106.677 2.37208Z" fill="#4D2952"/>
<path d="M115.394 24.9001C113.303 24.9001 111.66 24.3027 110.466 23.1081C109.292 21.9134 108.706 20.2494 108.706 18.1161V9.86008C108.706 9.45474 108.812 9.14541 109.026 8.93208C109.239 8.69741 109.527 8.58008 109.89 8.58008C110.252 8.58008 110.53 8.69741 110.722 8.93208C110.935 9.14541 111.042 9.45474 111.042 9.86008V18.1161C111.042 19.6307 111.447 20.8041 112.258 21.6361C113.068 22.4681 114.199 22.8841 115.65 22.8841C116.802 22.8841 117.826 22.6281 118.722 22.1161C119.618 21.6041 120.311 20.8894 120.802 19.9721C121.314 19.0547 121.57 17.9987 121.57 16.8041V9.86008C121.57 9.45474 121.666 9.14541 121.858 8.93208C122.071 8.69741 122.37 8.58008 122.754 8.58008C123.116 8.58008 123.394 8.69741 123.586 8.93208C123.799 9.14541 123.906 9.45474 123.906 9.86008V23.6201C123.906 24.0254 123.799 24.3454 123.586 24.5801C123.394 24.7934 123.116 24.9001 122.754 24.9001C122.37 24.9001 122.071 24.7827 121.858 24.5481C121.666 24.3134 121.57 24.0041 121.57 23.6201V21.7321C120.78 22.7561 119.863 23.5454 118.818 24.1001C117.772 24.6334 116.631 24.9001 115.394 24.9001Z" fill="#4D2952"/>
<path d="M129.516 24.9001C129.154 24.9001 128.866 24.7934 128.652 24.5801C128.46 24.3454 128.364 24.0254 128.364 23.6201V9.86008C128.364 9.45474 128.46 9.14541 128.652 8.93208C128.866 8.69741 129.154 8.58008 129.516 8.58008C129.9 8.58008 130.188 8.69741 130.38 8.93208C130.594 9.16674 130.7 9.47608 130.7 9.86008V11.6841C131.276 10.7241 132.012 9.96674 132.908 9.41208C133.826 8.85741 134.786 8.58008 135.788 8.58008C136.791 8.58008 137.676 8.85741 138.444 9.41208C139.212 9.94541 139.778 10.7027 140.14 11.6841C140.887 10.6814 141.708 9.91341 142.604 9.38008C143.522 8.84674 144.471 8.58008 145.452 8.58008C147.138 8.58008 148.407 9.10274 149.26 10.1481C150.114 11.1721 150.54 12.6974 150.54 14.7241V23.6201C150.54 24.0254 150.434 24.3454 150.22 24.5801C150.007 24.7934 149.719 24.9001 149.356 24.9001C148.588 24.9001 148.204 24.4734 148.204 23.6201V14.6601C148.204 13.2947 147.97 12.2814 147.5 11.6201C147.052 10.9374 146.274 10.5961 145.164 10.5961C144.226 10.5961 143.383 10.8841 142.636 11.4601C141.89 12.0147 141.292 12.8254 140.844 13.8921V23.6201C140.844 24.0254 140.738 24.3454 140.524 24.5801C140.311 24.7934 140.023 24.9001 139.66 24.9001C139.298 24.9001 139.01 24.7934 138.796 24.5801C138.604 24.3454 138.508 24.0254 138.508 23.6201V15.1401C138.508 13.6681 138.242 12.5481 137.708 11.7801C137.196 10.9907 136.46 10.5961 135.5 10.5961C134.583 10.5961 133.762 10.8521 133.036 11.3641C132.311 11.8547 131.735 12.5374 131.308 13.4121C130.903 14.2867 130.7 15.2787 130.7 16.3881V23.6201C130.7 24.0041 130.594 24.3134 130.38 24.5481C130.188 24.7827 129.9 24.9001 129.516 24.9001Z" fill="#4D2952"/>
<path d="M162.643 24.9001C159.869 24.9001 157.725 24.1854 156.211 22.7561C154.696 21.3267 153.939 19.3001 153.939 16.6761C153.939 14.1587 154.707 12.1854 156.243 10.7561C157.779 9.30541 159.88 8.58008 162.547 8.58008C164.189 8.58008 165.651 8.84674 166.931 9.38008C168.211 9.89208 169.203 10.6281 169.907 11.5881C170.632 12.5267 170.995 13.6041 170.995 14.8201C170.995 15.7161 170.739 16.4094 170.227 16.9001C169.736 17.3907 169.053 17.6361 168.179 17.6361H156.339C156.339 19.2787 156.893 20.5694 158.003 21.5081C159.112 22.4254 160.659 22.8841 162.643 22.8841C163.859 22.8841 164.904 22.7561 165.779 22.5001C166.653 22.2227 167.475 21.7854 168.243 21.1881C168.648 20.8467 168.979 20.6761 169.235 20.6761C169.427 20.6761 169.608 20.7614 169.779 20.9321C170.077 21.1881 170.227 21.4547 170.227 21.7321C170.227 21.9454 170.099 22.1801 169.843 22.4361C168.968 23.2681 167.944 23.8867 166.771 24.2921C165.597 24.6974 164.221 24.9001 162.643 24.9001ZM167.475 15.7481C167.859 15.7481 168.147 15.6734 168.339 15.5241C168.531 15.3534 168.627 15.0547 168.627 14.6281C168.627 13.8601 168.371 13.1667 167.859 12.5481C167.347 11.9294 166.621 11.4494 165.683 11.1081C164.765 10.7667 163.72 10.5961 162.547 10.5961C160.648 10.5961 159.144 11.0654 158.035 12.0041C156.947 12.9214 156.403 14.1694 156.403 15.7481H167.475Z" fill="#4D2952"/>
<path d="M184.055 24.9001C182.007 24.9001 180.119 24.5587 178.391 23.8761C176.684 23.1721 175.351 22.2121 174.391 20.9961C174.22 20.7827 174.135 20.5587 174.135 20.3241C174.135 20.0254 174.295 19.7374 174.615 19.4601C174.786 19.3321 174.967 19.2681 175.159 19.2681C175.543 19.2681 175.884 19.4494 176.183 19.8121C177.058 20.7721 178.156 21.5187 179.479 22.0521C180.823 22.5641 182.348 22.8201 184.055 22.8201C185.932 22.8201 187.383 22.4787 188.407 21.7961C189.431 21.0921 189.943 20.1001 189.943 18.8201C189.943 17.7107 189.442 16.8147 188.439 16.1321C187.458 15.4494 185.783 14.8414 183.415 14.3081C180.322 13.6254 178.092 12.7721 176.727 11.7481C175.383 10.7027 174.711 9.32674 174.711 7.62008C174.711 5.84941 175.458 4.45208 176.951 3.42808C178.466 2.38274 180.503 1.86008 183.063 1.86008C185.004 1.86008 186.754 2.20141 188.311 2.88408C189.89 3.56674 191.01 4.48408 191.671 5.63608C191.799 5.84941 191.863 6.05208 191.863 6.24408C191.863 6.58541 191.682 6.88408 191.319 7.14008C191.17 7.22541 190.999 7.26808 190.807 7.26808C190.338 7.26808 189.975 7.08674 189.719 6.72408C189.1 5.82808 188.226 5.14541 187.095 4.67608C185.964 4.18541 184.62 3.94008 183.063 3.94008C179.116 3.94008 177.143 5.16674 177.143 7.62008C177.143 8.36674 177.346 8.99608 177.751 9.50808C178.156 9.99874 178.807 10.4467 179.703 10.8521C180.62 11.2361 181.89 11.6201 183.511 12.0041C186.668 12.7507 188.94 13.6574 190.327 14.7241C191.714 15.7694 192.407 17.1347 192.407 18.8201C192.407 20.6974 191.65 22.1801 190.135 23.2681C188.642 24.3561 186.615 24.9001 184.055 24.9001Z" fill="#4D2952"/>
<path d="M197.58 24.9001C197.218 24.9001 196.93 24.7934 196.716 24.5801C196.524 24.3454 196.428 24.0254 196.428 23.6201V1.57208C196.428 1.16674 196.524 0.85741 196.716 0.644077C196.93 0.40941 197.218 0.292076 197.58 0.292076C197.943 0.292076 198.231 0.40941 198.444 0.644077C198.658 0.85741 198.764 1.16674 198.764 1.57208V11.7481C199.554 10.7027 200.503 9.91341 201.612 9.38008C202.743 8.84674 203.97 8.58008 205.292 8.58008C207.319 8.58008 208.876 9.14541 209.964 10.2761C211.074 11.4067 211.628 13.0281 211.628 15.1401V23.6201C211.628 24.0254 211.522 24.3454 211.308 24.5801C211.095 24.7934 210.807 24.9001 210.444 24.9001C210.06 24.9001 209.772 24.7934 209.58 24.5801C209.388 24.3454 209.292 24.0254 209.292 23.6201V15.1401C209.292 12.1107 207.863 10.5961 205.004 10.5961C203.127 10.5961 201.612 11.1507 200.46 12.2601C199.33 13.3694 198.764 14.8414 198.764 16.6761V23.6201C198.764 24.0041 198.658 24.3134 198.444 24.5481C198.252 24.7827 197.964 24.9001 197.58 24.9001Z" fill="#4D2952"/>
<path d="M223.458 24.9001C221.602 24.9001 220.013 24.5267 218.69 23.7801C217.367 23.0334 216.365 22.0414 215.682 20.8041C215.021 19.5454 214.69 18.1907 214.69 16.7401C214.69 15.2894 215.021 13.9454 215.682 12.7081C216.365 11.4494 217.367 10.4467 218.69 9.70008C220.013 8.95341 221.602 8.58008 223.458 8.58008C225.314 8.58008 226.893 8.95341 228.194 9.70008C229.517 10.4467 230.509 11.4494 231.17 12.7081C231.853 13.9454 232.194 15.2894 232.194 16.7401C232.194 18.1907 231.853 19.5454 231.17 20.8041C230.509 22.0414 229.517 23.0334 228.194 23.7801C226.893 24.5267 225.314 24.9001 223.458 24.9001ZM223.458 22.8841C225.378 22.8841 226.914 22.3401 228.066 21.2521C229.239 20.1641 229.826 18.6601 229.826 16.7401C229.826 14.8201 229.239 13.3161 228.066 12.2281C226.914 11.1401 225.378 10.5961 223.458 10.5961C221.517 10.5961 219.959 11.1401 218.786 12.2281C217.634 13.3161 217.058 14.8201 217.058 16.7401C217.058 18.6601 217.634 20.1641 218.786 21.2521C219.959 22.3401 221.517 22.8841 223.458 22.8841Z" fill="#4D2952"/>
<path d="M236.985 34.1481C236.622 34.1481 236.334 34.0307 236.121 33.7961C235.929 33.5827 235.833 33.2734 235.833 32.8681V9.86008C235.833 9.45474 235.929 9.14541 236.121 8.93208C236.334 8.69741 236.622 8.58008 236.985 8.58008C237.369 8.58008 237.657 8.69741 237.849 8.93208C238.062 9.16674 238.169 9.47608 238.169 9.86008V11.9081C239.812 9.68941 242.18 8.58008 245.273 8.58008C247.854 8.58008 249.881 9.29474 251.353 10.7241C252.846 12.1534 253.593 14.1161 253.593 16.6121C253.593 18.2974 253.252 19.7694 252.569 21.0281C251.886 22.2654 250.905 23.2254 249.625 23.9081C248.366 24.5694 246.884 24.9001 245.177 24.9001C243.705 24.9001 242.404 24.6441 241.273 24.1321C240.164 23.5987 239.14 22.7667 238.201 21.6361V32.8681C238.201 33.2521 238.094 33.5614 237.881 33.7961C237.668 34.0307 237.369 34.1481 236.985 34.1481ZM245.017 22.8841C246.958 22.8841 248.473 22.3294 249.561 21.2201C250.67 20.0894 251.225 18.5321 251.225 16.5481C251.225 14.6281 250.681 13.1561 249.593 12.1321C248.526 11.1081 246.99 10.5961 244.985 10.5961C242.873 10.5961 241.209 11.1401 239.993 12.2281C238.777 13.2947 238.169 14.7561 238.169 16.6121C238.169 17.8494 238.446 18.9481 239.001 19.9081C239.577 20.8467 240.377 21.5827 241.401 22.1161C242.446 22.6281 243.652 22.8841 245.017 22.8841Z" fill="#4D2952"/>
<path d="M43.328 31.5951V38.5801H42.327V31.5951H39.731V30.7041H45.902V31.5951H43.328Z" fill="#585858"/>
<path d="M48.8677 35.1921V38.5801H47.8667V30.7041H51.4857C52.3217 30.7041 52.945 30.9094 53.3557 31.3201C53.715 31.6794 53.8947 32.1781 53.8947 32.8161C53.8947 33.2634 53.7957 33.6337 53.5977 33.9271C53.407 34.2204 53.088 34.4771 52.6407 34.6971C53 34.8364 53.264 35.0234 53.4327 35.2581C53.6013 35.5001 53.6967 35.9951 53.7187 36.7431C53.7333 37.2931 53.7663 37.6634 53.8177 37.8541C53.8763 38.0374 54.001 38.1951 54.1917 38.3271V38.5801H52.9817C52.8203 38.2427 52.7397 37.8871 52.7397 37.5131L52.7507 36.2811C52.7507 36.2004 52.7177 36.0757 52.6517 35.9071C52.5857 35.7384 52.5233 35.6174 52.4647 35.5441C52.2667 35.3094 51.9293 35.1921 51.4527 35.1921H48.8677ZM48.8677 34.3011H51.2987C52.3327 34.3011 52.8497 33.8501 52.8497 32.9481C52.8497 32.0461 52.3327 31.5951 51.2987 31.5951H48.8677V34.3011Z" fill="#585858"/>
<path d="M61.3965 30.7041H62.3975V36.1051C62.3975 36.9557 62.0858 37.6157 61.4625 38.0851C60.9272 38.4957 60.2268 38.7011 59.3615 38.7011C58.3642 38.7011 57.5942 38.4407 57.0515 37.9201C56.5822 37.4581 56.3475 36.8531 56.3475 36.1051V30.7041H57.3485V36.1051C57.3485 36.6477 57.5245 37.0694 57.8765 37.3701C58.2285 37.6634 58.7235 37.8101 59.3615 37.8101C60.0362 37.8101 60.5568 37.6414 60.9235 37.3041C61.2388 37.0034 61.3965 36.6037 61.3965 36.1051V30.7041Z" fill="#585858"/>
<path d="M70.4383 32.9701H69.4923C69.4703 31.9434 68.814 31.4301 67.5233 31.4301C66.9953 31.4301 66.57 31.5511 66.2473 31.7931C65.9246 32.0277 65.7633 32.3394 65.7633 32.7281C65.7633 33.0214 65.8586 33.2561 66.0493 33.4321C66.2473 33.6007 66.5846 33.7474 67.0613 33.8721L68.9313 34.3561C70.1193 34.6714 70.7133 35.3314 70.7133 36.3361C70.7133 37.0621 70.4236 37.6524 69.8443 38.1071C69.331 38.5031 68.594 38.7011 67.6333 38.7011C66.416 38.7011 65.5323 38.3344 64.9823 37.6011C64.689 37.2051 64.535 36.6734 64.5203 36.0061H65.4663V36.0281C65.4663 36.6001 65.6606 37.0437 66.0493 37.3591C66.4453 37.6671 66.9953 37.8211 67.6993 37.8211C68.3446 37.8211 68.825 37.7147 69.1403 37.5021C69.5143 37.2454 69.7013 36.8861 69.7013 36.4241C69.7013 35.8374 69.221 35.4231 68.2603 35.1811L66.3023 34.6751C65.2756 34.4111 64.7623 33.8061 64.7623 32.8601C64.7623 32.1121 65.0446 31.5327 65.6093 31.1221C66.1006 30.7627 66.7496 30.5831 67.5563 30.5831C68.7003 30.5831 69.518 30.9167 70.0093 31.5841C70.2953 31.9727 70.4383 32.3944 70.4383 32.8491C70.4383 32.8711 70.4383 32.9114 70.4383 32.9701Z" fill="#585858"/>
<path d="M75.8093 31.5951V38.5801H74.8083V31.5951H72.2123V30.7041H78.3833V31.5951H75.8093Z" fill="#585858"/>
<path d="M81.316 34.9941V37.6891H85.958V38.5801H80.315V30.7041H85.771V31.5951H81.316V34.1031H85.606V34.9941H81.316Z" fill="#585858"/>
<path d="M88.282 38.5801V30.7041H91.318C92.3814 30.7041 93.199 31.1001 93.771 31.8921C94.2697 32.5887 94.519 33.5054 94.519 34.6421C94.519 35.9474 94.1964 36.9521 93.551 37.6561C92.9864 38.2721 92.242 38.5801 91.318 38.5801H88.282ZM89.283 37.6891H91.142C92.726 37.6891 93.518 36.6734 93.518 34.6421C93.518 32.6107 92.726 31.5951 91.142 31.5951H89.283V37.6891Z" fill="#585858"/>
<path d="M102.896 30.5831C104.114 30.5831 105.074 31.0047 105.778 31.8481C106.387 32.5814 106.691 33.5127 106.691 34.6421C106.691 35.9401 106.299 36.9667 105.514 37.7221C104.825 38.3747 103.952 38.7011 102.896 38.7011C101.672 38.7011 100.707 38.2794 100.003 37.4361C99.3947 36.7027 99.0904 35.7714 99.0904 34.6421C99.0904 33.3441 99.4864 32.3174 100.278 31.5621C100.96 30.9094 101.833 30.5831 102.896 30.5831ZM102.885 31.4741C101.991 31.4741 101.283 31.8004 100.762 32.4531C100.315 33.0251 100.091 33.7547 100.091 34.6421C100.091 35.6614 100.381 36.4644 100.96 37.0511C101.466 37.5571 102.108 37.8101 102.885 37.8101C103.787 37.8101 104.499 37.4837 105.019 36.8311C105.467 36.2591 105.69 35.5294 105.69 34.6421C105.69 33.6227 105.401 32.8197 104.821 32.2331C104.315 31.7271 103.67 31.4741 102.885 31.4741Z" fill="#585858"/>
<path d="M114.828 30.7041V38.5801H113.706L109.625 32.1891V38.5801H108.679V30.7041H109.768L113.882 37.1391V30.7041H114.828Z" fill="#585858"/>
<path d="M118.293 30.7041V37.6891H122.176V38.5801H117.292V30.7041H118.293Z" fill="#585858"/>
<path d="M125.298 30.7041V38.5801H124.275V30.7041H125.298Z" fill="#585858"/>
<path d="M133.949 30.7041V38.5801H132.827L128.746 32.1891V38.5801H127.8V30.7041H128.889L133.003 37.1391V30.7041H133.949Z" fill="#585858"/>
<path d="M137.513 34.9941V37.6891H142.155V38.5801H136.512V30.7041H141.968V31.5951H137.513V34.1031H141.803V34.9941H137.513Z" fill="#585858"/>
<path d="M152.747 32.9701H151.801C151.779 31.9434 151.122 31.4301 149.832 31.4301C149.304 31.4301 148.878 31.5511 148.556 31.7931C148.233 32.0277 148.072 32.3394 148.072 32.7281C148.072 33.0214 148.167 33.2561 148.358 33.4321C148.556 33.6007 148.893 33.7474 149.37 33.8721L151.24 34.3561C152.428 34.6714 153.022 35.3314 153.022 36.3361C153.022 37.0621 152.732 37.6524 152.153 38.1071C151.639 38.5031 150.902 38.7011 149.942 38.7011C148.724 38.7011 147.841 38.3344 147.291 37.6011C146.997 37.2051 146.843 36.6734 146.829 36.0061H147.775V36.0281C147.775 36.6001 147.969 37.0437 148.358 37.3591C148.754 37.6671 149.304 37.8211 150.008 37.8211C150.653 37.8211 151.133 37.7147 151.449 37.5021C151.823 37.2454 152.01 36.8861 152.01 36.4241C152.01 35.8374 151.529 35.4231 150.569 35.1811L148.611 34.6751C147.584 34.4111 147.071 33.8061 147.071 32.8601C147.071 32.1121 147.353 31.5327 147.918 31.1221C148.409 30.7627 149.058 30.5831 149.865 30.5831C151.009 30.5831 151.826 30.9167 152.318 31.5841C152.604 31.9727 152.747 32.3944 152.747 32.8491C152.747 32.8711 152.747 32.9114 152.747 32.9701Z" fill="#585858"/>
<path d="M156.391 30.7041V38.5801H155.368V30.7041H156.391Z" fill="#585858"/>
<path d="M165.041 30.7041V38.5801H163.919L159.838 32.1891V38.5801H158.892V30.7041H159.981L164.095 37.1391V30.7041H165.041Z" fill="#585858"/>
<path d="M173.786 33.1131H172.752C172.642 32.5851 172.452 32.2001 172.18 31.9581C171.828 31.6354 171.315 31.4741 170.64 31.4741C169.819 31.4741 169.185 31.7967 168.737 32.4421C168.349 33.0067 168.154 33.7474 168.154 34.6641C168.154 35.6981 168.415 36.5011 168.935 37.0731C169.397 37.5644 169.991 37.8101 170.717 37.8101C171.605 37.8101 172.217 37.4837 172.554 36.8311C172.708 36.5304 172.829 36.1307 172.917 35.6321H173.951C173.709 37.6781 172.635 38.7011 170.728 38.7011C169.702 38.7011 168.891 38.4004 168.297 37.7991C167.535 37.0291 167.153 35.9951 167.153 34.6971C167.153 33.4357 167.52 32.3981 168.253 31.5841C168.855 30.9167 169.683 30.5831 170.739 30.5831C172.455 30.5831 173.471 31.4264 173.786 33.1131Z" fill="#585858"/>
<path d="M177.174 34.9941V37.6891H181.816V38.5801H176.173V30.7041H181.629V31.5951H177.174V34.1031H181.464V34.9941H177.174Z" fill="#585858"/>
<path d="M189.119 30.7041V38.1621L188.646 38.5801H188.184V31.8261L186.82 32.9701L186.325 32.3541L188.283 30.7041H189.119Z" fill="#585858"/>
<path d="M194.888 34.6751C194.463 35.2764 193.909 35.5771 193.227 35.5771C192.486 35.5771 191.922 35.3094 191.533 34.7741C191.218 34.3414 191.06 33.7914 191.06 33.1241C191.06 32.3174 191.295 31.6831 191.764 31.2211C192.182 30.7957 192.736 30.5831 193.425 30.5831C194.444 30.5831 195.134 31.0451 195.493 31.9691C195.72 32.5264 195.834 33.3221 195.834 34.3561C195.834 37.2381 194.811 38.6791 192.765 38.6791C192.582 38.6791 192.343 38.6644 192.05 38.6351L191.698 38.1841V37.8541C191.991 37.8981 192.241 37.9201 192.446 37.9201C193.326 37.9201 193.946 37.6817 194.305 37.2051C194.664 36.7211 194.859 35.8777 194.888 34.6751ZM193.414 31.4301C192.937 31.4301 192.567 31.6317 192.303 32.0351C192.105 32.3504 192.006 32.7281 192.006 33.1681C192.006 33.6374 192.131 34.0261 192.38 34.3341C192.629 34.6347 192.945 34.7851 193.326 34.7851C193.766 34.7851 194.122 34.6421 194.393 34.3561C194.664 34.0701 194.8 33.6997 194.8 33.2451C194.8 32.0351 194.338 31.4301 193.414 31.4301Z" fill="#585858"/>
<path d="M201.287 34.6751C200.861 35.2764 200.308 35.5771 199.626 35.5771C198.885 35.5771 198.32 35.3094 197.932 34.7741C197.616 34.3414 197.459 33.7914 197.459 33.1241C197.459 32.3174 197.693 31.6831 198.163 31.2211C198.581 30.7957 199.134 30.5831 199.824 30.5831C200.843 30.5831 201.532 31.0451 201.892 31.9691C202.119 32.5264 202.233 33.3221 202.233 34.3561C202.233 37.2381 201.21 38.6791 199.164 38.6791C198.98 38.6791 198.742 38.6644 198.449 38.6351L198.097 38.1841V37.8541C198.39 37.8981 198.639 37.9201 198.845 37.9201C199.725 37.9201 200.344 37.6817 200.704 37.2051C201.063 36.7211 201.257 35.8777 201.287 34.6751ZM199.813 31.4301C199.336 31.4301 198.966 31.6317 198.702 32.0351C198.504 32.3504 198.405 32.7281 198.405 33.1681C198.405 33.6374 198.529 34.0261 198.779 34.3341C199.028 34.6347 199.343 34.7851 199.725 34.7851C200.165 34.7851 200.52 34.6421 200.792 34.3561C201.063 34.0701 201.199 33.6997 201.199 33.2451C201.199 32.0351 200.737 31.4301 199.813 31.4301Z" fill="#585858"/>
<path d="M208.566 30.7041V31.3971L205.948 38.0631L205.31 38.5801H204.738L207.598 31.4961H203.781V30.7041H208.566Z" fill="#585858"/>
<path d="M257.582 24.126C257.302 24.126 257.069 24.0373 256.882 23.86C256.695 23.6733 256.602 23.44 256.602 23.16C256.602 22.8893 256.695 22.6607 256.882 22.474C257.078 22.278 257.311 22.18 257.582 22.18C257.853 22.18 258.086 22.278 258.282 22.474C258.478 22.6607 258.576 22.8893 258.576 23.16C258.576 23.4307 258.478 23.6593 258.282 23.846C258.086 24.0327 257.853 24.126 257.582 24.126Z" fill="#4D2952"/>
<path d="M262.952 24.126C262.374 24.126 261.856 24.0233 261.398 23.818C260.95 23.6033 260.6 23.3093 260.348 22.936C260.096 22.5533 259.97 22.1193 259.97 21.634V19.464C259.97 18.96 260.092 18.512 260.334 18.12C260.586 17.728 260.936 17.4247 261.384 17.21C261.842 16.986 262.36 16.874 262.938 16.874C263.48 16.874 263.96 16.9533 264.38 17.112C264.8 17.2613 265.127 17.476 265.36 17.756C265.603 18.036 265.724 18.358 265.724 18.722C265.724 18.9833 265.617 19.1933 265.402 19.352C265.188 19.5013 264.917 19.5667 264.59 19.548C264.59 19.1187 264.436 18.7687 264.128 18.498C263.83 18.2273 263.442 18.092 262.966 18.092C262.49 18.092 262.103 18.2227 261.804 18.484C261.506 18.7453 261.356 19.086 261.356 19.506V21.55C261.356 21.9513 261.506 22.278 261.804 22.53C262.112 22.782 262.509 22.908 262.994 22.908C263.47 22.908 263.858 22.7727 264.156 22.502C264.464 22.2313 264.618 21.886 264.618 21.466C264.954 21.438 265.23 21.4987 265.444 21.648C265.659 21.7973 265.766 22.0027 265.766 22.264C265.766 22.628 265.645 22.95 265.402 23.23C265.169 23.51 264.838 23.7293 264.408 23.888C263.979 24.0467 263.494 24.126 262.952 24.126Z" fill="#4D2952"/>
<path d="M269.676 24.126C269.088 24.126 268.561 24.0187 268.094 23.804C267.628 23.5893 267.259 23.2953 266.988 22.922C266.727 22.5393 266.596 22.1147 266.596 21.648V19.45C266.596 18.974 266.727 18.54 266.988 18.148C267.25 17.756 267.614 17.448 268.08 17.224C268.547 16.9907 269.079 16.874 269.676 16.874C270.274 16.874 270.806 16.9907 271.272 17.224C271.739 17.448 272.103 17.756 272.364 18.148C272.635 18.54 272.77 18.974 272.77 19.45V21.648C272.77 22.1147 272.635 22.5393 272.364 22.922C272.103 23.2953 271.734 23.5893 271.258 23.804C270.792 24.0187 270.264 24.126 269.676 24.126ZM269.676 22.922C270.208 22.922 270.628 22.8007 270.936 22.558C271.244 22.306 271.398 21.9747 271.398 21.564V19.506C271.398 19.0767 271.24 18.7313 270.922 18.47C270.614 18.2087 270.199 18.078 269.676 18.078C269.154 18.078 268.734 18.2087 268.416 18.47C268.108 18.7313 267.954 19.0767 267.954 19.506V21.564C267.954 21.9747 268.108 22.306 268.416 22.558C268.724 22.8007 269.144 22.922 269.676 22.922Z" fill="#4D2952"/>
<path d="M274.205 18.008C274.205 17.252 274.649 16.874 275.535 16.874V17.756C275.442 17.8493 275.339 17.98 275.227 18.148L275.297 18.204C275.596 17.7747 275.909 17.448 276.235 17.224C276.562 16.9907 276.949 16.874 277.397 16.874C278.237 16.874 278.811 17.2753 279.119 18.078C279.642 17.2753 280.351 16.874 281.247 16.874C281.901 16.874 282.409 17.098 282.773 17.546C283.147 17.994 283.333 18.5773 283.333 19.296V23.174C283.333 23.5007 283.217 23.7433 282.983 23.902C282.759 24.0513 282.414 24.126 281.947 24.126V19.394C281.947 18.5073 281.588 18.064 280.869 18.064C280.477 18.064 280.141 18.1993 279.861 18.47C279.591 18.7313 279.455 19.1 279.455 19.576V23.174C279.455 23.51 279.343 23.7527 279.119 23.902C278.895 24.0513 278.555 24.126 278.097 24.126V19.394C278.097 18.9833 278.009 18.6613 277.831 18.428C277.654 18.1853 277.379 18.064 277.005 18.064C276.595 18.064 276.254 18.2133 275.983 18.512C275.722 18.8013 275.591 19.17 275.591 19.618V23.174C275.591 23.5007 275.475 23.7433 275.241 23.902C275.017 24.0513 274.672 24.126 274.205 24.126V18.008Z" fill="#4D2952"/>
</svg>
