<svg width="283" height="39" viewBox="0 0 283 39" fill="none" xmlns="http://www.w3.org/2000/svg">
<path d="M3.12119 37.7815C4.0315 37.5949 4.94181 37.3816 6.06019 37.1417C5.56603 36.7952 5.25392 36.5552 4.94181 36.342C-2.1586 31.3303 -1.48237 20.5605 6.16423 16.5085C6.9705 16.082 7.30862 15.6288 7.2566 14.6958C7.17857 13.4695 7.28261 12.2166 7.23059 10.9637C7.17857 9.89735 7.62073 9.2309 8.45301 8.67108C9.10323 8.24456 9.67542 7.68474 10.2736 7.2049C8.63507 5.39216 8.66108 4.24587 10.4297 2.96629C10.2476 2.69972 10.0656 2.43314 9.8835 2.19322C10.0916 1.18022 11.47 1.18022 12.7445 2.19322C12.5624 2.40648 12.3803 2.6464 12.1983 2.85966C13.8108 4.56577 14.279 4.56577 15.8135 2.88632C17.7642 0.75369 23.4601 -0.445915 26.035 0.780348C27.7256 1.60674 29 2.833 29 4.91232C29 6.64508 27.7256 8.35119 25.7229 8.96432C22.1857 10.0573 18.9086 9.17758 16.0476 6.96498C14.0189 5.39216 14.1229 5.23221 12.3023 7.2049C12.7185 7.57811 13.0826 8.13792 13.5768 8.29787C15.1113 8.85769 15.4494 10.004 15.3193 11.4702C15.3193 11.5235 15.3193 11.5501 15.3193 11.6034C15.0593 14.2426 15.0593 16.7484 18.1803 17.7081C24.2144 22.5332 23.9803 31.8368 17.7122 36.342C17.4001 36.5552 17.0879 36.7952 16.5158 37.1684C17.9462 37.4883 19.1426 37.7548 20.3391 38.0214C20.3391 38.1014 20.313 38.1814 20.313 38.288C14.6171 38.288 8.89516 38.288 3.19922 38.288C3.17321 38.1014 3.1472 37.9414 3.12119 37.7815Z" fill="white"/>
<path d="M42.7441 24.608C42.3814 24.608 42.0934 24.5013 41.8801 24.288C41.6667 24.0533 41.5601 23.7333 41.5601 23.328V5.728C41.5601 4.53333 41.9121 3.59467 42.6161 2.912C43.3414 2.22933 44.3441 1.888 45.6241 1.888H51.0641C57.1441 1.888 60.1841 4.43733 60.1841 9.536C60.1841 11.8827 59.4054 13.696 57.8481 14.976C56.3121 16.2347 54.0934 16.864 51.1921 16.864H43.9601V23.328C43.9601 23.7333 43.8534 24.0533 43.6401 24.288C43.4267 24.5013 43.1281 24.608 42.7441 24.608ZM51.1921 14.848C53.2614 14.848 54.8614 14.4427 55.9921 13.632C57.1441 12.8213 57.7201 11.456 57.7201 9.536C57.7201 7.53067 57.1654 6.09067 56.0561 5.216C54.9467 4.32 53.3361 3.872 51.2241 3.872H45.6561C45.1441 3.872 44.7281 4.04267 44.4081 4.384C44.1094 4.72533 43.9601 5.17333 43.9601 5.728V14.848H51.1921Z" fill="white"/>
<path d="M70.5801 24.608C67.8067 24.608 65.6627 23.8933 64.1481 22.464C62.6334 21.0347 61.8761 19.008 61.8761 16.384C61.8761 13.8667 62.6441 11.8933 64.1801 10.464C65.7161 9.01334 67.8174 8.288 70.4841 8.288C72.1267 8.288 73.5881 8.55467 74.8681 9.088C76.1481 9.6 77.1401 10.336 77.8441 11.296C78.5694 12.2347 78.9321 13.312 78.9321 14.528C78.9321 15.424 78.6761 16.1173 78.1641 16.608C77.6734 17.0987 76.9907 17.344 76.1161 17.344H64.2761C64.2761 18.9867 64.8307 20.2773 65.9401 21.216C67.0494 22.1333 68.5961 22.592 70.5801 22.592C71.7961 22.592 72.8414 22.464 73.7161 22.208C74.5907 21.9307 75.4121 21.4933 76.1801 20.896C76.5854 20.5547 76.9161 20.384 77.1721 20.384C77.3641 20.384 77.5454 20.4693 77.7161 20.64C78.0147 20.896 78.1641 21.1627 78.1641 21.44C78.1641 21.6533 78.0361 21.888 77.7801 22.144C76.9054 22.976 75.8814 23.5947 74.7081 24C73.5347 24.4053 72.1587 24.608 70.5801 24.608ZM75.4121 15.456C75.7961 15.456 76.0841 15.3813 76.2761 15.232C76.4681 15.0613 76.5641 14.7627 76.5641 14.336C76.5641 13.568 76.3081 12.8747 75.7961 12.256C75.2841 11.6373 74.5587 11.1573 73.6201 10.816C72.7027 10.4747 71.6574 10.304 70.4841 10.304C68.5854 10.304 67.0814 10.7733 65.9721 11.712C64.8841 12.6293 64.3401 13.8773 64.3401 15.456H75.4121Z" fill="white"/>
<path d="M83.7366 24.608C83.3739 24.608 83.0859 24.5013 82.8726 24.288C82.6806 24.0533 82.5846 23.7333 82.5846 23.328V9.568C82.5846 9.16267 82.6806 8.85333 82.8726 8.64C83.0646 8.40534 83.3526 8.288 83.7366 8.288C84.0992 8.288 84.3766 8.40534 84.5686 8.64C84.7819 8.85333 84.8886 9.16267 84.8886 9.568V11.488C86.3392 9.568 88.3446 8.608 90.9046 8.608H91.7046C92.1099 8.608 92.4299 8.704 92.6646 8.896C92.8992 9.06667 93.0166 9.312 93.0166 9.632C93.0166 9.952 92.8992 10.1973 92.6646 10.368C92.4299 10.5387 92.1099 10.624 91.7046 10.624H90.8086C88.9952 10.624 87.5552 11.1467 86.4886 12.192C85.4432 13.216 84.9206 14.6133 84.9206 16.384V23.328C84.9206 23.712 84.8139 24.0213 84.6006 24.256C84.4086 24.4907 84.1206 24.608 83.7366 24.608Z" fill="white"/>
<path d="M106.177 2.08C106.39 2.272 106.497 2.50667 106.497 2.784C106.497 3.06133 106.379 3.31733 106.145 3.552C105.931 3.72267 105.729 3.808 105.537 3.808C105.259 3.808 104.886 3.66933 104.417 3.392C103.649 2.944 102.827 2.72 101.953 2.72C100.374 2.72 99.5846 3.57333 99.5846 5.28V8.608H104.129C104.961 8.608 105.377 8.93867 105.377 9.6C105.377 9.89867 105.27 10.1333 105.057 10.304C104.843 10.4747 104.534 10.56 104.129 10.56H99.5846V23.328C99.5846 23.7333 99.4779 24.0533 99.2646 24.288C99.0726 24.5013 98.7952 24.608 98.4326 24.608C98.0699 24.608 97.7819 24.5013 97.5686 24.288C97.3552 24.0533 97.2486 23.7333 97.2486 23.328V10.56H95.7126C95.3072 10.56 94.9872 10.4747 94.7526 10.304C94.5392 10.1333 94.4326 9.89867 94.4326 9.6C94.4326 8.93867 94.8592 8.608 95.7126 8.608H97.2486V5.408C97.2486 3.97867 97.6646 2.83733 98.4966 1.984C99.3499 1.10933 100.47 0.672001 101.857 0.672001C102.731 0.672001 103.542 0.800001 104.289 1.056C105.035 1.29067 105.665 1.632 106.177 2.08Z" fill="white"/>
<path d="M114.894 24.608C112.803 24.608 111.16 24.0107 109.966 22.816C108.792 21.6213 108.206 19.9573 108.206 17.824V9.568C108.206 9.16267 108.312 8.85333 108.526 8.64C108.739 8.40534 109.027 8.288 109.39 8.288C109.752 8.288 110.03 8.40534 110.222 8.64C110.435 8.85333 110.542 9.16267 110.542 9.568V17.824C110.542 19.3387 110.947 20.512 111.758 21.344C112.568 22.176 113.699 22.592 115.15 22.592C116.302 22.592 117.326 22.336 118.222 21.824C119.118 21.312 119.811 20.5973 120.302 19.68C120.814 18.7627 121.07 17.7067 121.07 16.512V9.568C121.07 9.16267 121.166 8.85333 121.358 8.64C121.571 8.40534 121.87 8.288 122.254 8.288C122.616 8.288 122.894 8.40534 123.086 8.64C123.299 8.85333 123.406 9.16267 123.406 9.568V23.328C123.406 23.7333 123.299 24.0533 123.086 24.288C122.894 24.5013 122.616 24.608 122.254 24.608C121.87 24.608 121.571 24.4907 121.358 24.256C121.166 24.0213 121.07 23.712 121.07 23.328V21.44C120.28 22.464 119.363 23.2533 118.318 23.808C117.272 24.3413 116.131 24.608 114.894 24.608Z" fill="white"/>
<path d="M129.016 24.608C128.654 24.608 128.366 24.5013 128.152 24.288C127.96 24.0533 127.864 23.7333 127.864 23.328V9.568C127.864 9.16267 127.96 8.85333 128.152 8.64C128.366 8.40534 128.654 8.288 129.016 8.288C129.4 8.288 129.688 8.40534 129.88 8.64C130.094 8.87467 130.2 9.184 130.2 9.568V11.392C130.776 10.432 131.512 9.67467 132.408 9.12C133.326 8.56533 134.286 8.288 135.288 8.288C136.291 8.288 137.176 8.56533 137.944 9.12C138.712 9.65333 139.278 10.4107 139.64 11.392C140.387 10.3893 141.208 9.62133 142.104 9.088C143.022 8.55467 143.971 8.288 144.952 8.288C146.638 8.288 147.907 8.81067 148.76 9.856C149.614 10.88 150.04 12.4053 150.04 14.432V23.328C150.04 23.7333 149.934 24.0533 149.72 24.288C149.507 24.5013 149.219 24.608 148.856 24.608C148.088 24.608 147.704 24.1813 147.704 23.328V14.368C147.704 13.0027 147.47 11.9893 147 11.328C146.552 10.6453 145.774 10.304 144.664 10.304C143.726 10.304 142.883 10.592 142.136 11.168C141.39 11.7227 140.792 12.5333 140.344 13.6V23.328C140.344 23.7333 140.238 24.0533 140.024 24.288C139.811 24.5013 139.523 24.608 139.16 24.608C138.798 24.608 138.51 24.5013 138.296 24.288C138.104 24.0533 138.008 23.7333 138.008 23.328V14.848C138.008 13.376 137.742 12.256 137.208 11.488C136.696 10.6987 135.96 10.304 135 10.304C134.083 10.304 133.262 10.56 132.536 11.072C131.811 11.5627 131.235 12.2453 130.808 13.12C130.403 13.9947 130.2 14.9867 130.2 16.096V23.328C130.2 23.712 130.094 24.0213 129.88 24.256C129.688 24.4907 129.4 24.608 129.016 24.608Z" fill="white"/>
<path d="M162.143 24.608C159.369 24.608 157.225 23.8933 155.711 22.464C154.196 21.0347 153.439 19.008 153.439 16.384C153.439 13.8667 154.207 11.8933 155.743 10.464C157.279 9.01334 159.38 8.288 162.047 8.288C163.689 8.288 165.151 8.55467 166.431 9.088C167.711 9.6 168.703 10.336 169.407 11.296C170.132 12.2347 170.495 13.312 170.495 14.528C170.495 15.424 170.239 16.1173 169.727 16.608C169.236 17.0987 168.553 17.344 167.679 17.344H155.839C155.839 18.9867 156.393 20.2773 157.503 21.216C158.612 22.1333 160.159 22.592 162.143 22.592C163.359 22.592 164.404 22.464 165.279 22.208C166.153 21.9307 166.975 21.4933 167.743 20.896C168.148 20.5547 168.479 20.384 168.735 20.384C168.927 20.384 169.108 20.4693 169.279 20.64C169.577 20.896 169.727 21.1627 169.727 21.44C169.727 21.6533 169.599 21.888 169.343 22.144C168.468 22.976 167.444 23.5947 166.271 24C165.097 24.4053 163.721 24.608 162.143 24.608ZM166.975 15.456C167.359 15.456 167.647 15.3813 167.839 15.232C168.031 15.0613 168.127 14.7627 168.127 14.336C168.127 13.568 167.871 12.8747 167.359 12.256C166.847 11.6373 166.121 11.1573 165.183 10.816C164.265 10.4747 163.22 10.304 162.047 10.304C160.148 10.304 158.644 10.7733 157.535 11.712C156.447 12.6293 155.903 13.8773 155.903 15.456H166.975Z" fill="white"/>
<path d="M183.555 24.608C181.507 24.608 179.619 24.2667 177.891 23.584C176.184 22.88 174.851 21.92 173.891 20.704C173.72 20.4907 173.635 20.2667 173.635 20.032C173.635 19.7333 173.795 19.4453 174.115 19.168C174.286 19.04 174.467 18.976 174.659 18.976C175.043 18.976 175.384 19.1573 175.683 19.52C176.558 20.48 177.656 21.2267 178.979 21.76C180.323 22.272 181.848 22.528 183.555 22.528C185.432 22.528 186.883 22.1867 187.907 21.504C188.931 20.8 189.443 19.808 189.443 18.528C189.443 17.4187 188.942 16.5227 187.939 15.84C186.958 15.1573 185.283 14.5493 182.915 14.016C179.822 13.3333 177.592 12.48 176.227 11.456C174.883 10.4107 174.211 9.03467 174.211 7.328C174.211 5.55733 174.958 4.16 176.451 3.136C177.966 2.09067 180.003 1.568 182.563 1.568C184.504 1.568 186.254 1.90933 187.811 2.592C189.39 3.27467 190.51 4.192 191.171 5.344C191.299 5.55733 191.363 5.76 191.363 5.952C191.363 6.29333 191.182 6.592 190.819 6.848C190.67 6.93333 190.499 6.976 190.307 6.976C189.838 6.976 189.475 6.79467 189.219 6.432C188.6 5.536 187.726 4.85333 186.595 4.384C185.464 3.89333 184.12 3.648 182.563 3.648C178.616 3.648 176.643 4.87467 176.643 7.328C176.643 8.07467 176.846 8.704 177.251 9.216C177.656 9.70667 178.307 10.1547 179.203 10.56C180.12 10.944 181.39 11.328 183.011 11.712C186.168 12.4587 188.44 13.3653 189.827 14.432C191.214 15.4773 191.907 16.8427 191.907 18.528C191.907 20.4053 191.15 21.888 189.635 22.976C188.142 24.064 186.115 24.608 183.555 24.608Z" fill="white"/>
<path d="M197.08 24.608C196.718 24.608 196.43 24.5013 196.216 24.288C196.024 24.0533 195.928 23.7333 195.928 23.328V1.28C195.928 0.874667 196.024 0.565334 196.216 0.352001C196.43 0.117334 196.718 0 197.08 0C197.443 0 197.731 0.117334 197.944 0.352001C198.158 0.565334 198.264 0.874667 198.264 1.28V11.456C199.054 10.4107 200.003 9.62133 201.112 9.088C202.243 8.55467 203.47 8.288 204.792 8.288C206.819 8.288 208.376 8.85334 209.464 9.984C210.574 11.1147 211.128 12.736 211.128 14.848V23.328C211.128 23.7333 211.022 24.0533 210.808 24.288C210.595 24.5013 210.307 24.608 209.944 24.608C209.56 24.608 209.272 24.5013 209.08 24.288C208.888 24.0533 208.792 23.7333 208.792 23.328V14.848C208.792 11.8187 207.363 10.304 204.504 10.304C202.627 10.304 201.112 10.8587 199.96 11.968C198.83 13.0773 198.264 14.5493 198.264 16.384V23.328C198.264 23.712 198.158 24.0213 197.944 24.256C197.752 24.4907 197.464 24.608 197.08 24.608Z" fill="white"/>
<path d="M222.958 24.608C221.102 24.608 219.513 24.2347 218.19 23.488C216.867 22.7413 215.865 21.7493 215.182 20.512C214.521 19.2533 214.19 17.8987 214.19 16.448C214.19 14.9973 214.521 13.6533 215.182 12.416C215.865 11.1573 216.867 10.1547 218.19 9.408C219.513 8.66133 221.102 8.288 222.958 8.288C224.814 8.288 226.393 8.66133 227.694 9.408C229.017 10.1547 230.009 11.1573 230.67 12.416C231.353 13.6533 231.694 14.9973 231.694 16.448C231.694 17.8987 231.353 19.2533 230.67 20.512C230.009 21.7493 229.017 22.7413 227.694 23.488C226.393 24.2347 224.814 24.608 222.958 24.608ZM222.958 22.592C224.878 22.592 226.414 22.048 227.566 20.96C228.739 19.872 229.326 18.368 229.326 16.448C229.326 14.528 228.739 13.024 227.566 11.936C226.414 10.848 224.878 10.304 222.958 10.304C221.017 10.304 219.459 10.848 218.286 11.936C217.134 13.024 216.558 14.528 216.558 16.448C216.558 18.368 217.134 19.872 218.286 20.96C219.459 22.048 221.017 22.592 222.958 22.592Z" fill="white"/>
<path d="M236.485 33.856C236.122 33.856 235.834 33.7387 235.621 33.504C235.429 33.2907 235.333 32.9813 235.333 32.576V9.568C235.333 9.16267 235.429 8.85333 235.621 8.64C235.834 8.40534 236.122 8.288 236.485 8.288C236.869 8.288 237.157 8.40534 237.349 8.64C237.562 8.87467 237.669 9.184 237.669 9.568V11.616C239.312 9.39734 241.68 8.288 244.773 8.288C247.354 8.288 249.381 9.00267 250.853 10.432C252.346 11.8613 253.093 13.824 253.093 16.32C253.093 18.0053 252.752 19.4773 252.069 20.736C251.386 21.9733 250.405 22.9333 249.125 23.616C247.866 24.2773 246.384 24.608 244.677 24.608C243.205 24.608 241.904 24.352 240.773 23.84C239.664 23.3067 238.64 22.4747 237.701 21.344V32.576C237.701 32.96 237.594 33.2693 237.381 33.504C237.168 33.7387 236.869 33.856 236.485 33.856ZM244.517 22.592C246.458 22.592 247.973 22.0373 249.061 20.928C250.17 19.7973 250.725 18.24 250.725 16.256C250.725 14.336 250.181 12.864 249.093 11.84C248.026 10.816 246.49 10.304 244.485 10.304C242.373 10.304 240.709 10.848 239.493 11.936C238.277 13.0027 237.669 14.464 237.669 16.32C237.669 17.5573 237.946 18.656 238.501 19.616C239.077 20.5547 239.877 21.2907 240.901 21.824C241.946 22.336 243.152 22.592 244.517 22.592Z" fill="white"/>
<path d="M42.828 31.303V38.288H41.827V31.303H39.231V30.412H45.402V31.303H42.828Z" fill="white"/>
<path d="M48.3677 34.9V38.288H47.3667V30.412H50.9857C51.8217 30.412 52.445 30.6173 52.8557 31.028C53.215 31.3873 53.3947 31.886 53.3947 32.524C53.3947 32.9713 53.2957 33.3417 53.0977 33.635C52.907 33.9283 52.588 34.185 52.1407 34.405C52.5 34.5443 52.764 34.7313 52.9327 34.966C53.1013 35.208 53.1967 35.703 53.2187 36.451C53.2333 37.001 53.2663 37.3713 53.3177 37.562C53.3763 37.7453 53.501 37.903 53.6917 38.035V38.288H52.4817C52.3203 37.9507 52.2397 37.595 52.2397 37.221L52.2507 35.989C52.2507 35.9083 52.2177 35.7837 52.1517 35.615C52.0857 35.4463 52.0233 35.3253 51.9647 35.252C51.7667 35.0173 51.4293 34.9 50.9527 34.9H48.3677ZM48.3677 34.009H50.7987C51.8327 34.009 52.3497 33.558 52.3497 32.656C52.3497 31.754 51.8327 31.303 50.7987 31.303H48.3677V34.009Z" fill="white"/>
<path d="M60.8965 30.412H61.8975V35.813C61.8975 36.6637 61.5858 37.3237 60.9625 37.793C60.4272 38.2037 59.7268 38.409 58.8615 38.409C57.8642 38.409 57.0942 38.1487 56.5515 37.628C56.0822 37.166 55.8475 36.561 55.8475 35.813V30.412H56.8485V35.813C56.8485 36.3557 57.0245 36.7773 57.3765 37.078C57.7285 37.3713 58.2235 37.518 58.8615 37.518C59.5362 37.518 60.0568 37.3493 60.4235 37.012C60.7388 36.7113 60.8965 36.3117 60.8965 35.813V30.412Z" fill="white"/>
<path d="M69.9383 32.678H68.9923C68.9703 31.6513 68.314 31.138 67.0233 31.138C66.4953 31.138 66.07 31.259 65.7473 31.501C65.4246 31.7357 65.2633 32.0473 65.2633 32.436C65.2633 32.7293 65.3586 32.964 65.5493 33.14C65.7473 33.3087 66.0846 33.4553 66.5613 33.58L68.4313 34.064C69.6193 34.3793 70.2133 35.0393 70.2133 36.044C70.2133 36.77 69.9236 37.3603 69.3443 37.815C68.831 38.211 68.094 38.409 67.1333 38.409C65.916 38.409 65.0323 38.0423 64.4823 37.309C64.189 36.913 64.035 36.3813 64.0203 35.714H64.9663V35.736C64.9663 36.308 65.1606 36.7517 65.5493 37.067C65.9453 37.375 66.4953 37.529 67.1993 37.529C67.8446 37.529 68.325 37.4227 68.6403 37.21C69.0143 36.9533 69.2013 36.594 69.2013 36.132C69.2013 35.5453 68.721 35.131 67.7603 34.889L65.8023 34.383C64.7756 34.119 64.2623 33.514 64.2623 32.568C64.2623 31.82 64.5446 31.2407 65.1093 30.83C65.6006 30.4707 66.2496 30.291 67.0563 30.291C68.2003 30.291 69.018 30.6247 69.5093 31.292C69.7953 31.6807 69.9383 32.1023 69.9383 32.557C69.9383 32.579 69.9383 32.6193 69.9383 32.678Z" fill="white"/>
<path d="M75.3093 31.303V38.288H74.3083V31.303H71.7123V30.412H77.8833V31.303H75.3093Z" fill="white"/>
<path d="M80.816 34.702V37.397H85.458V38.288H79.815V30.412H85.271V31.303H80.816V33.811H85.106V34.702H80.816Z" fill="white"/>
<path d="M87.782 38.288V30.412H90.818C91.8814 30.412 92.699 30.808 93.271 31.6C93.7697 32.2967 94.019 33.2133 94.019 34.35C94.019 35.6553 93.6964 36.66 93.051 37.364C92.4864 37.98 91.742 38.288 90.818 38.288H87.782ZM88.783 37.397H90.642C92.226 37.397 93.018 36.3813 93.018 34.35C93.018 32.3187 92.226 31.303 90.642 31.303H88.783V37.397Z" fill="white"/>
<path d="M102.396 30.291C103.614 30.291 104.574 30.7127 105.278 31.556C105.887 32.2893 106.191 33.2207 106.191 34.35C106.191 35.648 105.799 36.6747 105.014 37.43C104.325 38.0827 103.452 38.409 102.396 38.409C101.172 38.409 100.207 37.9873 99.5034 37.144C98.8947 36.4107 98.5904 35.4793 98.5904 34.35C98.5904 33.052 98.9864 32.0253 99.7784 31.27C100.46 30.6173 101.333 30.291 102.396 30.291ZM102.385 31.182C101.491 31.182 100.783 31.5083 100.262 32.161C99.8151 32.733 99.5914 33.4627 99.5914 34.35C99.5914 35.3693 99.8811 36.1723 100.46 36.759C100.966 37.265 101.608 37.518 102.385 37.518C103.287 37.518 103.999 37.1917 104.519 36.539C104.967 35.967 105.19 35.2373 105.19 34.35C105.19 33.3307 104.901 32.5277 104.321 31.941C103.815 31.435 103.17 31.182 102.385 31.182Z" fill="white"/>
<path d="M114.328 30.412V38.288H113.206L109.125 31.897V38.288H108.179V30.412H109.268L113.382 36.847V30.412H114.328Z" fill="white"/>
<path d="M117.793 30.412V37.397H121.676V38.288H116.792V30.412H117.793Z" fill="white"/>
<path d="M124.798 30.412V38.288H123.775V30.412H124.798Z" fill="white"/>
<path d="M133.449 30.412V38.288H132.327L128.246 31.897V38.288H127.3V30.412H128.389L132.503 36.847V30.412H133.449Z" fill="white"/>
<path d="M137.013 34.702V37.397H141.655V38.288H136.012V30.412H141.468V31.303H137.013V33.811H141.303V34.702H137.013Z" fill="white"/>
<path d="M152.247 32.678H151.301C151.279 31.6513 150.622 31.138 149.332 31.138C148.804 31.138 148.378 31.259 148.056 31.501C147.733 31.7357 147.572 32.0473 147.572 32.436C147.572 32.7293 147.667 32.964 147.858 33.14C148.056 33.3087 148.393 33.4553 148.87 33.58L150.74 34.064C151.928 34.3793 152.522 35.0393 152.522 36.044C152.522 36.77 152.232 37.3603 151.653 37.815C151.139 38.211 150.402 38.409 149.442 38.409C148.224 38.409 147.341 38.0423 146.791 37.309C146.497 36.913 146.343 36.3813 146.329 35.714H147.275V35.736C147.275 36.308 147.469 36.7517 147.858 37.067C148.254 37.375 148.804 37.529 149.508 37.529C150.153 37.529 150.633 37.4227 150.949 37.21C151.323 36.9533 151.51 36.594 151.51 36.132C151.51 35.5453 151.029 35.131 150.069 34.889L148.111 34.383C147.084 34.119 146.571 33.514 146.571 32.568C146.571 31.82 146.853 31.2407 147.418 30.83C147.909 30.4707 148.558 30.291 149.365 30.291C150.509 30.291 151.326 30.6247 151.818 31.292C152.104 31.6807 152.247 32.1023 152.247 32.557C152.247 32.579 152.247 32.6193 152.247 32.678Z" fill="white"/>
<path d="M155.891 30.412V38.288H154.868V30.412H155.891Z" fill="white"/>
<path d="M164.541 30.412V38.288H163.419L159.338 31.897V38.288H158.392V30.412H159.481L163.595 36.847V30.412H164.541Z" fill="white"/>
<path d="M173.286 32.821H172.252C172.142 32.293 171.952 31.908 171.68 31.666C171.328 31.3433 170.815 31.182 170.14 31.182C169.319 31.182 168.685 31.5047 168.237 32.15C167.849 32.7147 167.654 33.4553 167.654 34.372C167.654 35.406 167.915 36.209 168.435 36.781C168.897 37.2723 169.491 37.518 170.217 37.518C171.105 37.518 171.717 37.1917 172.054 36.539C172.208 36.2383 172.329 35.8387 172.417 35.34H173.451C173.209 37.386 172.135 38.409 170.228 38.409C169.202 38.409 168.391 38.1083 167.797 37.507C167.035 36.737 166.653 35.703 166.653 34.405C166.653 33.1437 167.02 32.106 167.753 31.292C168.355 30.6247 169.183 30.291 170.239 30.291C171.955 30.291 172.971 31.1343 173.286 32.821Z" fill="white"/>
<path d="M176.674 34.702V37.397H181.316V38.288H175.673V30.412H181.129V31.303H176.674V33.811H180.964V34.702H176.674Z" fill="white"/>
<path d="M188.619 30.412V37.87L188.146 38.288H187.684V31.534L186.32 32.678L185.825 32.062L187.783 30.412H188.619Z" fill="white"/>
<path d="M194.388 34.383C193.963 34.9843 193.409 35.285 192.727 35.285C191.986 35.285 191.422 35.0173 191.033 34.482C190.718 34.0493 190.56 33.4993 190.56 32.832C190.56 32.0253 190.795 31.391 191.264 30.929C191.682 30.5037 192.236 30.291 192.925 30.291C193.944 30.291 194.634 30.753 194.993 31.677C195.22 32.2343 195.334 33.03 195.334 34.064C195.334 36.946 194.311 38.387 192.265 38.387C192.082 38.387 191.843 38.3723 191.55 38.343L191.198 37.892V37.562C191.491 37.606 191.741 37.628 191.946 37.628C192.826 37.628 193.446 37.3897 193.805 36.913C194.164 36.429 194.359 35.5857 194.388 34.383ZM192.914 31.138C192.437 31.138 192.067 31.3397 191.803 31.743C191.605 32.0583 191.506 32.436 191.506 32.876C191.506 33.3453 191.631 33.734 191.88 34.042C192.129 34.3427 192.445 34.493 192.826 34.493C193.266 34.493 193.622 34.35 193.893 34.064C194.164 33.778 194.3 33.4077 194.3 32.953C194.3 31.743 193.838 31.138 192.914 31.138Z" fill="white"/>
<path d="M200.787 34.383C200.361 34.9843 199.808 35.285 199.126 35.285C198.385 35.285 197.82 35.0173 197.432 34.482C197.116 34.0493 196.959 33.4993 196.959 32.832C196.959 32.0253 197.193 31.391 197.663 30.929C198.081 30.5037 198.634 30.291 199.324 30.291C200.343 30.291 201.032 30.753 201.392 31.677C201.619 32.2343 201.733 33.03 201.733 34.064C201.733 36.946 200.71 38.387 198.664 38.387C198.48 38.387 198.242 38.3723 197.949 38.343L197.597 37.892V37.562C197.89 37.606 198.139 37.628 198.345 37.628C199.225 37.628 199.844 37.3897 200.204 36.913C200.563 36.429 200.757 35.5857 200.787 34.383ZM199.313 31.138C198.836 31.138 198.466 31.3397 198.202 31.743C198.004 32.0583 197.905 32.436 197.905 32.876C197.905 33.3453 198.029 33.734 198.279 34.042C198.528 34.3427 198.843 34.493 199.225 34.493C199.665 34.493 200.02 34.35 200.292 34.064C200.563 33.778 200.699 33.4077 200.699 32.953C200.699 31.743 200.237 31.138 199.313 31.138Z" fill="white"/>
<path d="M208.066 30.412V31.105L205.448 37.771L204.81 38.288H204.238L207.098 31.204H203.281V30.412H208.066Z" fill="white"/>
<path d="M257.082 23.8339C256.802 23.8339 256.569 23.7453 256.382 23.5679C256.195 23.3813 256.102 23.1479 256.102 22.8679C256.102 22.5973 256.195 22.3686 256.382 22.1819C256.578 21.9859 256.811 21.8879 257.082 21.8879C257.353 21.8879 257.586 21.9859 257.782 22.1819C257.978 22.3686 258.076 22.5973 258.076 22.8679C258.076 23.1386 257.978 23.3673 257.782 23.5539C257.586 23.7406 257.353 23.8339 257.082 23.8339Z" fill="white"/>
<path d="M262.452 23.8339C261.874 23.8339 261.356 23.7313 260.898 23.5259C260.45 23.3113 260.1 23.0173 259.848 22.6439C259.596 22.2613 259.47 21.8273 259.47 21.3419V19.1719C259.47 18.6679 259.592 18.2199 259.834 17.8279C260.086 17.4359 260.436 17.1326 260.884 16.9179C261.342 16.6939 261.86 16.5819 262.438 16.5819C262.98 16.5819 263.46 16.6613 263.88 16.8199C264.3 16.9693 264.627 17.1839 264.86 17.4639C265.103 17.7439 265.224 18.0659 265.224 18.4299C265.224 18.6913 265.117 18.9013 264.902 19.0599C264.688 19.2093 264.417 19.2746 264.09 19.2559C264.09 18.8266 263.936 18.4766 263.628 18.2059C263.33 17.9353 262.942 17.7999 262.466 17.7999C261.99 17.7999 261.603 17.9306 261.304 18.1919C261.006 18.4533 260.856 18.7939 260.856 19.2139V21.2579C260.856 21.6593 261.006 21.9859 261.304 22.2379C261.612 22.4899 262.009 22.6159 262.494 22.6159C262.97 22.6159 263.358 22.4806 263.656 22.2099C263.964 21.9393 264.118 21.5939 264.118 21.1739C264.454 21.1459 264.73 21.2066 264.944 21.3559C265.159 21.5053 265.266 21.7106 265.266 21.9719C265.266 22.3359 265.145 22.6579 264.902 22.9379C264.669 23.2179 264.338 23.4373 263.908 23.5959C263.479 23.7546 262.994 23.8339 262.452 23.8339Z" fill="white"/>
<path d="M269.176 23.8339C268.588 23.8339 268.061 23.7266 267.594 23.5119C267.128 23.2973 266.759 23.0033 266.488 22.6299C266.227 22.2473 266.096 21.8226 266.096 21.3559V19.1579C266.096 18.6819 266.227 18.2479 266.488 17.8559C266.75 17.4639 267.114 17.1559 267.58 16.9319C268.047 16.6986 268.579 16.5819 269.176 16.5819C269.774 16.5819 270.306 16.6986 270.772 16.9319C271.239 17.1559 271.603 17.4639 271.864 17.8559C272.135 18.2479 272.27 18.6819 272.27 19.1579V21.3559C272.27 21.8226 272.135 22.2473 271.864 22.6299C271.603 23.0033 271.234 23.2973 270.758 23.5119C270.292 23.7266 269.764 23.8339 269.176 23.8339ZM269.176 22.6299C269.708 22.6299 270.128 22.5086 270.436 22.2659C270.744 22.0139 270.898 21.6826 270.898 21.2719V19.2139C270.898 18.7846 270.74 18.4393 270.422 18.1779C270.114 17.9166 269.699 17.7859 269.176 17.7859C268.654 17.7859 268.234 17.9166 267.916 18.1779C267.608 18.4393 267.454 18.7846 267.454 19.2139V21.2719C267.454 21.6826 267.608 22.0139 267.916 22.2659C268.224 22.5086 268.644 22.6299 269.176 22.6299Z" fill="white"/>
<path d="M273.705 17.7159C273.705 16.9599 274.149 16.5819 275.035 16.5819V17.4639C274.942 17.5573 274.839 17.6879 274.727 17.8559L274.797 17.9119C275.096 17.4826 275.409 17.1559 275.735 16.9319C276.062 16.6986 276.449 16.5819 276.897 16.5819C277.737 16.5819 278.311 16.9833 278.619 17.7859C279.142 16.9833 279.851 16.5819 280.747 16.5819C281.401 16.5819 281.909 16.8059 282.273 17.2539C282.647 17.7019 282.833 18.2853 282.833 19.0039V22.8819C282.833 23.2086 282.717 23.4513 282.483 23.6099C282.259 23.7593 281.914 23.8339 281.447 23.8339V19.1019C281.447 18.2153 281.088 17.7719 280.369 17.7719C279.977 17.7719 279.641 17.9073 279.361 18.1779C279.091 18.4393 278.955 18.8079 278.955 19.2839V22.8819C278.955 23.2179 278.843 23.4606 278.619 23.6099C278.395 23.7593 278.055 23.8339 277.597 23.8339V19.1019C277.597 18.6913 277.509 18.3693 277.331 18.1359C277.154 17.8933 276.879 17.7719 276.505 17.7719C276.095 17.7719 275.754 17.9213 275.483 18.2199C275.222 18.5093 275.091 18.8779 275.091 19.3259V22.8819C275.091 23.2086 274.975 23.4513 274.741 23.6099C274.517 23.7593 274.172 23.8339 273.705 23.8339V17.7159Z" fill="white"/>
</svg>
